<svg width="75" height="74" viewBox="0 0 75 74" fill="none" xmlns="http://www.w3.org/2000/svg">
<g clip-path="url(#clip0_2934_3307)">
<path d="M37.4999 72.4784C57.3595 72.4784 73.4588 56.5937 73.4588 36.999C73.4588 17.4042 57.3595 1.51953 37.4999 1.51953C17.6404 1.51953 1.54102 17.4042 1.54102 36.999C1.54102 56.5937 17.6404 72.4784 37.4999 72.4784Z" fill="white" stroke="#0D00C7" stroke-width="3" stroke-miterlimit="10"/>
<path d="M62.1271 48.2909C62.3943 48.2098 62.6203 47.9361 62.8566 47.3786L63.8121 45.1789C64.2847 44.0841 64.0484 43.7901 62.9902 43.3441L58.2025 41.3167C57.134 40.8707 56.7539 40.9011 56.2812 41.9959L54.7812 45.4526L60.9354 48.0578C61.5313 48.3112 61.8703 48.3822 62.1271 48.2909ZM61.5929 46.4866C61.5004 46.4866 61.408 46.446 61.3669 46.4359L56.6614 44.4389L57.2265 43.1515C57.3806 42.8068 57.6169 42.8677 57.7915 42.9386L62.1066 44.7633C62.2093 44.8038 62.3326 44.8646 62.3737 44.9863C62.4045 45.0674 62.3943 45.1485 62.3532 45.2498L61.9114 46.2635C61.8395 46.4359 61.7162 46.4866 61.6134 46.4866H61.5929Z" fill="#0D00C7"/>
<path d="M61.2745 49.6808L53.8978 46.5586L53.2197 48.1298L60.5964 51.252C61.141 51.4852 61.5519 51.1912 61.7266 50.7959C61.891 50.4106 61.819 49.9038 61.2848 49.6808H61.2745Z" fill="#0D00C7"/>
<path d="M54.6373 55.8739L54.6886 55.955C54.8119 56.1577 54.9558 56.3402 55.0996 56.5125L55.3359 56.7862C55.6338 57.141 56.0756 57.1613 56.466 56.8572C56.7743 56.6139 57.0106 56.1679 56.6612 55.732L56.4044 55.438C55.5927 54.4243 55.4489 53.6336 55.9421 52.701C56.1167 52.3969 56.1064 52.1029 55.9112 51.8698C55.7674 51.6974 55.5927 51.5961 55.4078 51.5859C55.4078 51.5859 55.3873 51.5859 55.377 51.5859C55.2023 51.5859 55.0277 51.6569 54.8633 51.7988C54.3085 52.255 53.8667 53.289 54.1236 54.5662L54.1441 54.6473L54.0722 54.6777C53.6818 54.8399 53.0756 54.85 52.4284 53.9884L51.1749 55.0224C51.4215 55.3366 51.6784 55.59 51.9352 55.7928L52.0585 55.8942L51.9147 55.9651C51.9147 55.9651 51.8633 55.9955 51.8325 56.0259L51.0208 56.695L50.9592 56.6139L49.1818 54.5155L47.8564 55.6103L51.5653 59.9996C51.74 60.2024 51.9455 60.3139 52.1715 60.324C52.3873 60.324 52.5927 60.2531 52.7777 60.101C53.127 59.8172 53.2092 59.3914 52.9934 59.0366L52.9523 58.9657L53.7845 58.2764C54.0927 58.0229 54.1338 57.6985 53.9078 57.4248C53.7948 57.2931 53.651 57.2221 53.5071 57.212C53.353 57.212 53.1989 57.2728 53.0448 57.3944L52.2023 58.0837L51.7708 57.5668L52.5722 56.9079C52.7571 56.7558 52.8496 56.5733 52.8393 56.3807V56.249L52.9626 56.2794C53.4763 56.3807 54.0106 56.2591 54.5756 55.9246L54.6578 55.8739H54.6373Z" fill="#0D00C7"/>
<path d="M47.579 54.6166L51.6373 51.2714C51.8222 51.1193 51.9558 51.1294 52.0996 51.3119L52.5619 51.8492C52.7263 52.0418 52.901 52.1431 53.1064 52.1634C53.3222 52.1837 53.5482 52.1026 53.7537 51.9303C53.9695 51.7579 54.103 51.5349 54.1236 51.322C54.1441 51.1193 54.0722 50.9267 53.9181 50.7442L53.2708 49.9738C52.9421 49.5785 52.6749 49.3859 52.4181 49.3555C52.3873 49.3555 52.3667 49.3555 52.3359 49.3555C52.0893 49.3555 51.8119 49.4872 51.4523 49.7914L46.7571 53.6536C46.5825 53.7955 46.4797 53.9577 46.4695 54.1199C46.4489 54.3226 46.5516 54.4848 46.6338 54.5862C46.7571 54.7281 47.0859 55.022 47.579 54.6267V54.6166Z" fill="#0D00C7"/>
<path d="M42.4211 62.1717C42.3286 61.7662 41.9896 61.5736 41.5478 61.675L40.767 61.8473L40.2533 59.6172L38.5684 60.0024L39.4519 63.8139C39.5855 64.3816 40.0684 64.5438 40.4896 64.4424C40.9108 64.3512 41.2704 63.9964 41.1369 63.4287L41.0855 63.1955L41.8663 63.0232C42.3081 62.9218 42.5238 62.5975 42.4314 62.1818L42.4211 62.1717Z" fill="#0D00C7"/>
<path d="M45.103 54.9214C44.8358 54.7491 44.5071 54.668 44.1269 54.668C43.9215 54.668 43.6954 54.6984 43.4694 54.7491L39.5242 55.6411C38.8975 55.783 38.4249 56.0669 38.1578 56.4622C37.9009 56.8373 37.829 57.3036 37.9523 57.8104C38.1989 58.8951 39.0927 59.3715 40.3256 59.0877L44.2708 58.1956C44.918 58.0537 45.4009 57.7496 45.668 57.334C45.9043 56.9691 45.966 56.5129 45.8427 56.0263C45.7297 55.5296 45.4728 55.1545 45.103 54.9214ZM44.055 56.8677C43.9626 57.0096 43.8084 57.111 43.5927 57.1617L40.4591 57.8713C40.3872 57.8915 40.3153 57.8915 40.2537 57.8915C39.8941 57.8915 39.7091 57.6482 39.6578 57.4151C39.6167 57.2428 39.6372 57.0907 39.7194 56.9589C39.8119 56.817 39.966 56.7156 40.1817 56.665L43.3153 55.9554C43.5311 55.9047 43.716 55.925 43.8598 56.0162C43.9934 56.0973 44.0756 56.2291 44.1167 56.4014C44.1578 56.5737 44.1372 56.7359 44.0447 56.8677H44.055Z" fill="#0D00C7"/>
<path d="M47.1064 58.7943C46.9626 58.1861 46.4797 58.2063 46.2023 58.2672C45.514 58.4192 44.6407 59.1085 44.2503 60.2743L44.2297 60.3452H44.1475C43.7057 60.3452 43.1612 60.1324 42.966 59.1288L41.3633 59.4937C41.692 61.065 42.5962 61.8151 43.9729 61.6529H44.0756V61.7442C44.0962 61.9773 44.127 62.18 44.1784 62.3929L44.2503 62.7072C44.353 63.1431 44.7331 63.3661 45.2263 63.2647C45.7297 63.1633 45.9968 62.8085 45.9249 62.3726L45.853 62.0381C45.6167 60.8724 45.8838 60.1324 46.7366 59.5546C47.0551 59.362 47.1783 59.1085 47.1064 58.7943Z" fill="#0D00C7"/>
<path d="M36.1028 60.4646C36.1337 60.3328 36.1542 60.1402 36.0515 59.9679C35.959 59.8259 35.8049 59.7246 35.5891 59.6638L28.3665 57.8898C28.2844 57.8695 28.2124 57.8594 28.1405 57.8594C27.8323 57.8594 27.6165 58.0317 27.5344 58.3561C27.483 58.5487 27.5035 58.7312 27.596 58.8629C27.6885 59.0049 27.8426 59.1062 28.0583 59.1569L31.4179 59.9881L31.2535 60.6268C31.0994 61.2249 31.6131 61.4479 31.9419 61.529C32.3323 61.6202 32.8255 61.6202 32.9693 61.0525L33.1337 60.424L35.2809 60.9512C35.507 61.0018 35.7022 60.9816 35.8563 60.8802C35.9796 60.7991 36.0823 60.647 36.1234 60.4747L36.1028 60.4646Z" fill="#0D00C7"/>
<path d="M28.0277 62.7544L33.9249 64.2039C34.4181 64.3256 34.7468 64.1634 34.8496 63.7579C34.9523 63.3423 34.7468 63.0483 34.2537 62.9267L29.353 61.7204C29.1886 61.6798 29.0242 61.5987 29.0962 61.3352L29.1372 61.173C29.2605 60.6763 29.4044 60.3722 29.5482 60.1086L27.9044 59.7031C27.7194 60.0275 27.5448 60.5344 27.3701 61.2237L27.2777 61.5987C27.1235 62.2171 27.3599 62.5618 28.0379 62.7341L28.0277 62.7544Z" fill="#0D00C7"/>
<path d="M36.5446 57.6056C36.8014 56.5919 36.3185 55.8823 35.1987 55.6086L30.6268 54.4834C30.4007 54.4226 30.185 54.4023 29.9898 54.4023C29.2192 54.4023 28.7055 54.8281 28.5001 55.6289C28.2432 56.6426 28.7261 57.3522 29.8459 57.6259L34.4179 58.7511C35.5377 59.0248 36.298 58.6193 36.5548 57.6158L36.5446 57.6056ZM34.8391 57.19C34.8083 57.3117 34.7364 57.413 34.6336 57.4739C34.5617 57.5144 34.4692 57.5347 34.3768 57.5347C34.3151 57.5347 34.2432 57.5347 34.1713 57.5043L30.6268 56.6325C30.2877 56.5514 30.1233 56.3284 30.1953 56.0344C30.2672 55.7506 30.5138 55.6188 30.8631 55.71L34.4076 56.5818C34.7466 56.6629 34.911 56.8859 34.8391 57.1799V57.19Z" fill="#0D00C7"/>
<path d="M59.1165 25.057C58.6131 25.3611 58.0172 25.2293 57.709 24.7326C57.3905 24.2257 57.5446 23.6378 58.048 23.3337C58.5515 23.0296 59.1474 23.1614 59.4659 23.6682C59.7741 24.1649 59.62 24.7529 59.1268 25.057H59.1165Z" fill="#0D00C7"/>
<path d="M14.4864 48.4646C14.2193 47.9375 14.4145 47.3597 14.9384 47.0961C15.4624 46.8326 16.048 47.015 16.3254 47.5422C16.5925 48.0591 16.3871 48.6369 15.8631 48.9005C15.3391 49.1641 14.7535 48.9816 14.4864 48.4646Z" fill="#0D00C7"/>
<path d="M14.1974 23.1006C14.0741 23.0499 13.9508 23.0195 13.8275 23.0195C13.7248 23.0195 13.6323 23.0398 13.5398 23.0702C13.3344 23.1513 13.17 23.3236 13.0775 23.5568C12.9131 23.9521 12.9953 24.4488 13.5398 24.6719L20.9577 27.6825L21.6152 26.1012L14.1974 23.0905V23.1006Z" fill="#0D00C7"/>
<path d="M11.9893 26.9919L11.0647 29.2119C10.8284 29.7695 10.7873 30.1141 10.9106 30.3676C11.0339 30.6108 11.3113 30.7933 11.9174 31.0366L16.7359 32.993C17.8044 33.4289 18.1845 33.3884 18.6469 32.2834L20.0955 28.8065L13.9003 26.2925C13.4688 26.1202 13.1709 26.0391 12.9448 26.0391C12.8524 26.0391 12.7804 26.0492 12.7085 26.0796C12.4414 26.1708 12.2256 26.4445 11.9893 27.0021V26.9919ZM12.9654 28.0867C13.0065 27.9854 13.0681 27.9144 13.1503 27.884C13.2736 27.8333 13.3969 27.884 13.4893 27.9144L18.2256 29.8404L17.6811 31.138C17.5887 31.3508 17.4654 31.4117 17.3421 31.4117C17.2599 31.4117 17.188 31.3914 17.1263 31.361L12.7907 29.5971C12.6777 29.5465 12.4003 29.435 12.5339 29.1207L12.9654 28.0969V28.0867Z" fill="#0D00C7"/>
<path d="M22.3242 20.2225L23.5673 19.1682C23.3105 18.8641 23.0536 18.6107 22.7968 18.4079L22.6632 18.3066L22.807 18.2356C22.807 18.2356 22.8584 18.2052 22.8892 18.1748L23.6803 17.5057L23.7522 17.5868L25.5605 19.6548L26.8755 18.5397L23.0947 14.2011C22.7146 13.7551 22.2111 13.8463 21.8824 14.12C21.5331 14.414 21.4612 14.8296 21.6872 15.1945L21.7385 15.2655L20.9166 15.9649C20.6187 16.2183 20.5776 16.5427 20.8139 16.8164C21.0502 17.08 21.3687 17.0901 21.6769 16.8367L22.4988 16.1372L22.9406 16.6441L22.1495 17.3131C21.9646 17.4652 21.8721 17.6578 21.8927 17.8403V17.972L21.7694 17.9518C21.2659 17.8605 20.7214 17.9822 20.1666 18.3268L20.0844 18.3775L20.0331 18.2964C19.8995 18.0937 19.7557 17.9112 19.6118 17.7389L19.3755 17.4652C19.2214 17.2827 19.0159 17.1915 18.8105 17.1915C18.6255 17.1915 18.4303 17.2625 18.2557 17.4145C17.9577 17.6679 17.7214 18.1038 18.081 18.5397L18.3379 18.8337C19.1701 19.8372 19.3139 20.6279 18.8413 21.5605C18.6666 21.8646 18.6872 22.1586 18.8824 22.3918C19.0365 22.5641 19.2111 22.6553 19.3961 22.6655H19.4166C19.5913 22.6655 19.7659 22.5945 19.9303 22.4526C20.4748 21.9863 20.9064 20.9523 20.629 19.6751L20.6084 19.594L20.6803 19.5635C21.0707 19.3912 21.6769 19.3709 22.3344 20.2326L22.3242 20.2225Z" fill="#0D00C7"/>
<path d="M21.5331 24.2565C22.1906 25.0168 22.6016 25.0573 23.3516 24.4187L27.9851 20.4855C28.1598 20.3436 28.2523 20.1814 28.2625 20.0091C28.2728 19.8064 28.1803 19.6442 28.0879 19.5529C28.0057 19.4617 27.8721 19.3401 27.6769 19.3198C27.5023 19.2995 27.3276 19.3705 27.1427 19.5327L23.1358 22.9387C23.0536 23.0096 22.9817 23.0502 22.9098 23.0502C22.9098 23.0502 22.8995 23.0502 22.8892 23.0502C22.7968 23.0502 22.7249 22.9792 22.6735 22.9083L22.2009 22.371C22.0262 22.1683 21.8105 22.0669 21.5947 22.0669C21.3995 22.0669 21.2043 22.148 21.0091 22.3102C20.6803 22.5839 20.4749 23.0502 20.8653 23.5064L21.5228 24.2666L21.5331 24.2565Z" fill="#0D00C7"/>
<path d="M28.4792 15.8623C29.1676 15.7001 30.0306 15.0007 30.4004 13.8248L30.421 13.7538H30.4929C30.4929 13.7538 30.5134 13.7538 30.5237 13.7538C30.9552 13.7538 31.4998 13.9667 31.7052 14.95L33.308 14.5648C32.9587 12.9935 32.0443 12.2637 30.6573 12.4461H30.5545L30.5443 12.3549C30.5134 12.1218 30.4826 11.9089 30.4313 11.7061L30.3491 11.3919C30.2566 11.0371 29.9689 10.8242 29.5991 10.8242C29.5271 10.8242 29.445 10.8242 29.3628 10.8546C28.8593 10.9661 28.5922 11.3209 28.6744 11.7568L28.7463 12.0913C28.9929 13.2571 28.7463 13.9971 27.9039 14.585C27.5854 14.7776 27.4621 15.0412 27.5443 15.3555C27.6984 15.9535 28.1813 15.9333 28.4587 15.8623H28.4792Z" fill="#0D00C7"/>
<path d="M32.1884 11.9101C32.2911 12.3156 32.6301 12.4981 33.0719 12.3967L33.8527 12.2041L34.4075 14.4342L36.0822 14.0288L35.1473 10.2375C35.0856 9.98409 34.9418 9.79149 34.7466 9.69012C34.5616 9.59889 34.3356 9.56848 34.1096 9.6293C33.6884 9.73067 33.339 10.0855 33.4726 10.6531L33.524 10.8761L32.7534 11.0688C32.3219 11.1701 32.1062 11.5046 32.2089 11.9203L32.1884 11.9101Z" fill="#0D00C7"/>
<path d="M29.6305 19.201C30.0517 19.4544 30.6168 19.5051 31.2641 19.353L35.1887 18.4001C35.8154 18.2481 36.288 17.9541 36.5449 17.5588C36.7915 17.1837 36.8531 16.7174 36.7298 16.2004C36.4627 15.1259 35.5689 14.6596 34.336 14.9536L30.4113 15.9064C29.7846 16.0585 29.312 16.3525 29.0552 16.7478C28.8086 17.1229 28.7469 17.5892 28.8702 18.096C28.9935 18.5927 29.2504 18.9678 29.6305 19.1908V19.201ZM30.6374 17.2344C30.7298 17.0925 30.8839 16.9911 31.0894 16.9404L34.2127 16.1903C34.4285 16.1396 34.6134 16.1599 34.7675 16.2511C34.9011 16.3322 34.9833 16.464 35.0243 16.6262C35.0654 16.7985 35.0449 16.9506 34.9627 17.0823C34.8702 17.2243 34.7161 17.3256 34.5004 17.3763L31.3771 18.1264C31.2949 18.1467 31.223 18.1569 31.1511 18.1569C31.0278 18.1569 30.925 18.1264 30.8326 18.0758C30.699 17.9947 30.6065 17.8629 30.5654 17.7007C30.5243 17.5284 30.5449 17.3662 30.6271 17.2344H30.6374Z" fill="#0D00C7"/>
<path d="M46.8794 15.9055C47.013 15.8244 47.1055 15.6825 47.1466 15.5C47.1876 15.3479 47.2493 14.8411 46.6226 14.6992L43.2424 13.9186L43.3966 13.28C43.5404 12.6819 43.0164 12.469 42.6979 12.3879C42.1329 12.2562 41.7835 12.4184 41.6705 12.8847L41.5164 13.5233L39.3692 13.0266C39.287 13.0063 39.215 12.9962 39.1534 12.9962C39.0301 12.9962 38.9171 13.0266 38.8246 13.0773C38.6808 13.1584 38.5781 13.3104 38.537 13.503C38.5061 13.6348 38.4856 13.8274 38.5986 13.9997C38.6911 14.1416 38.8452 14.243 39.0712 14.2937L46.3144 15.9663C46.5404 16.017 46.7356 15.9967 46.8794 15.8953V15.9055Z" fill="#0D00C7"/>
<path d="M39.5129 18.358L44.1054 19.4122C44.691 19.5541 45.1739 19.5034 45.5438 19.2804C45.8828 19.0777 46.1088 18.7229 46.2218 18.2464C46.3348 17.77 46.2835 17.3544 46.078 17.0199C45.852 16.6549 45.441 16.4015 44.8554 16.2697L40.2629 15.2155C40.0472 15.1648 39.8417 15.1445 39.6465 15.1445C38.8657 15.1445 38.3314 15.5703 38.1465 16.3914C37.9102 17.4051 38.3931 18.1045 39.5129 18.3681V18.358ZM39.852 16.7766C39.8828 16.6347 39.965 16.5333 40.078 16.4725C40.191 16.4117 40.3451 16.4015 40.5198 16.4421L44.0746 17.2632C44.4239 17.3443 44.5883 17.5673 44.5164 17.8511C44.4855 17.9829 44.4136 18.0741 44.3211 18.1349C44.2492 18.1755 44.1568 18.2059 44.054 18.2059C43.9924 18.2059 43.9307 18.2059 43.8588 18.1856L40.304 17.3645C40.1191 17.324 39.9855 17.2429 39.9136 17.1212C39.852 17.0199 39.8314 16.9084 39.8622 16.7766H39.852Z" fill="#0D00C7"/>
<path d="M46.571 11.1103L40.6532 9.7418C40.3861 9.68098 40.1704 9.70125 40.0163 9.79248C39.8416 9.89385 39.7697 10.0662 39.7389 10.198C39.6361 10.6237 39.8519 10.9076 40.3553 11.0191L45.2765 12.1544C45.369 12.1747 45.4615 12.2051 45.5231 12.2862C45.5745 12.3673 45.5642 12.4686 45.5437 12.5295L45.5026 12.6917C45.3895 13.1884 45.2457 13.4925 45.1019 13.756L46.7457 14.1311C46.9204 13.8067 47.095 13.2897 47.2594 12.6004L47.3519 12.2152C47.4238 11.9111 47.4032 11.678 47.2902 11.5056C47.1669 11.313 46.9306 11.1812 46.571 11.1002V11.1103Z" fill="#0D00C7"/>
<path d="M46.972 30.7055C46.52 30.2595 45.77 30.2494 45.3076 30.7055L34.7563 41.1162L30.3076 36.737C30.0816 36.514 29.7939 36.3924 29.4755 36.3924C29.157 36.3924 28.8693 36.514 28.6433 36.737C28.4172 36.96 28.2939 37.2439 28.2939 37.5581C28.2939 37.8724 28.4172 38.1562 28.6433 38.3792L33.9138 43.5795C34.3556 44.0154 35.1364 44.0154 35.5782 43.5795L46.9618 32.3477C47.4241 31.8915 47.4241 31.1617 46.9618 30.7055H46.972Z" fill="#0D00C7"/>
</g>
<defs>
<clipPath id="clip0_2934_3307">
<rect width="75" height="74" fill="white"/>
</clipPath>
</defs>
</svg>
