<svg width="75" height="74" viewBox="0 0 75 74" fill="none" xmlns="http://www.w3.org/2000/svg">
<g clip-path="url(#clip0_2934_2992)">
<path d="M37.4999 72.4784C57.3595 72.4784 73.4588 56.5937 73.4588 36.999C73.4588 17.4042 57.3595 1.51953 37.4999 1.51953C17.6404 1.51953 1.54102 17.4042 1.54102 36.999C1.54102 56.5937 17.6404 72.4784 37.4999 72.4784Z" fill="white" stroke="#E3E3E3" stroke-width="3" stroke-miterlimit="10"/>
<path d="M26.1988 34.7082V36.1172C26.1988 36.472 26.4967 36.766 26.8563 36.766C27.2159 36.766 27.5138 36.472 27.5138 36.1172V34.7082C27.5138 34.4446 27.7296 34.2317 27.9967 34.2317H30.5344C30.8015 34.2317 31.0172 34.4446 31.0172 34.7082V45.1695C31.0172 45.4331 30.8015 45.646 30.5344 45.646H27.9967C27.7296 45.646 27.5138 45.4331 27.5138 45.1695V39.1684C27.5138 38.8136 27.2159 38.5197 26.8563 38.5197C26.4967 38.5197 26.1988 38.8136 26.1988 39.1684V45.1695C26.1988 46.1427 27.0001 46.9435 27.9967 46.9435H30.5344C31.346 46.9435 32.0344 46.4062 32.2604 45.6764C33.4933 46.1123 34.7775 46.3353 36.0926 46.3353H39.0104C39.37 46.3353 39.6679 46.0413 39.6679 45.6865C39.6679 45.3317 39.37 45.0378 39.0104 45.0378H36.0926C34.7878 45.0378 33.5344 44.7945 32.3323 44.3079V36.0361C33.4316 35.8536 34.3871 34.9312 35.1063 34.1202C36.2261 32.8632 36.894 31.2109 36.9659 29.4775L37.0994 26.5682C37.0994 26.5682 37.0994 26.5479 37.0994 26.5378C37.0994 26.4161 37.2022 26.3249 37.3152 26.3249H37.346C37.7878 26.3249 38.1988 26.4972 38.507 26.8115C38.8152 27.1257 38.9796 27.5312 38.9693 27.9772L38.8666 32.5794C38.8666 32.5794 38.8666 32.5997 38.8666 32.6199C38.8974 33.5424 39.5857 34.2419 40.4693 34.2419H46.6029C47.0857 34.2419 47.4761 34.6271 47.4761 35.1035C47.4761 35.5799 47.0857 35.9652 46.6029 35.9652H45.6782C45.3186 35.9652 45.0207 36.2591 45.0207 36.6139C45.0207 36.9687 45.3186 37.2627 45.6782 37.2627H46.3357C46.8186 37.2627 47.209 37.6479 47.209 38.1243C47.209 38.6008 46.8186 38.986 46.3357 38.986C45.9556 38.986 45.3083 38.986 44.8871 38.986C44.5275 38.986 44.2296 39.2799 44.2296 39.6347C44.2296 39.9895 44.5275 40.2835 44.8871 40.2835H45.5446C46.0275 40.2835 46.4179 40.6687 46.4179 41.1452C46.4179 41.6216 46.0275 42.0068 45.5446 42.0068H44.1885C43.8289 42.0068 43.5309 42.3008 43.5309 42.6556C43.5309 43.0104 43.8289 43.3043 44.1885 43.3043H44.846C45.3289 43.3043 45.7193 43.6895 45.7193 44.166C45.7193 44.6424 45.3289 45.0276 44.846 45.0276H42.0823C41.7227 45.0276 41.4248 45.3216 41.4248 45.6764C41.4248 46.0312 41.7227 46.3252 42.0823 46.3252H44.846C46.0583 46.3252 47.0344 45.352 47.0344 44.166C47.0344 43.7301 46.9008 43.3246 46.6748 42.9901C47.3118 42.615 47.733 41.9257 47.733 41.1452C47.733 40.7295 47.6097 40.3342 47.4042 39.9997C48.072 39.6246 48.5241 38.9252 48.5241 38.1142C48.5241 37.5871 48.3289 37.1106 48.0207 36.7356C48.4933 36.3402 48.7912 35.7523 48.7912 35.0934C48.7912 33.8972 47.8049 32.9342 46.6029 32.9342H40.4693C40.2946 32.9342 40.1919 32.7517 40.1816 32.5794L40.2844 27.9975C40.3049 27.2068 40.007 26.4668 39.4419 25.8991C38.8871 25.3416 38.1371 25.0273 37.346 25.0273H37.3152C36.4727 25.0273 35.7946 25.6964 35.7844 26.5276L35.6508 29.4167C35.5892 30.8561 35.0344 32.2246 34.1097 33.2586C33.8323 33.5728 33.0515 34.4446 32.322 34.698C32.322 33.7249 31.5104 32.9342 30.5241 32.9342H27.9864C27.0001 32.9342 26.1885 33.7249 26.1885 34.7082H26.1988Z" fill="#E3E3E3"/>
<path d="M54.5957 47.6409C54.4519 48.0059 54.1642 48.0464 53.9073 47.945C53.6505 47.8437 53.4656 47.6308 53.6197 47.2557L56.1265 40.91C56.4245 40.1497 57.0409 39.9672 57.6265 40.1903H57.6573C58.243 40.4234 58.5306 40.9404 58.2224 41.7108L56.3423 46.465L56.5067 46.5259C56.5888 46.5563 56.6402 46.5259 56.6813 46.4346L58.7156 41.285C58.8491 40.9607 59.1368 40.8694 59.4039 40.9607C59.6608 41.062 59.8354 41.2952 59.6916 41.65L58.7361 44.0626L59.0443 44.1842L60.082 41.5587C60.2464 41.1533 60.5135 41.0012 60.8936 41.1431C61.2635 41.285 61.3662 41.5689 61.2019 41.9845L58.4176 49.05C58.2532 49.4656 57.9758 49.6075 57.606 49.4656C57.2258 49.3237 57.1334 49.0297 57.2978 48.6242L58.3354 45.9987L58.0272 45.8771L57.2772 47.7727C56.9793 48.533 56.5991 48.6546 56.0443 48.4418L54.8012 47.9653L57.0409 42.2987C57.0717 42.2075 57.0204 42.1366 56.9484 42.1061C56.8868 42.0859 56.7943 42.1061 56.7635 42.1872L54.6265 47.6004L54.5957 47.6409ZM62.1676 45.4716L63.0409 43.2618C63.2567 42.7245 63.5341 42.5927 63.9039 42.7346C64.2635 42.8766 64.3971 43.1604 64.1813 43.7078L63.3388 45.8467C63.6984 46.0494 63.8217 46.5056 63.6162 47.0429C63.4108 47.5801 62.9895 47.8335 62.5991 47.7322L61.7567 49.8609C61.5409 50.4083 61.243 50.53 60.8834 50.3881C60.5135 50.2461 60.4005 49.9522 60.606 49.425L61.4895 47.1848C61.3868 47.1239 61.2943 47.053 61.2121 46.9719C60.8217 48.685 59.8971 49.9522 58.3662 49.7596L59.0854 47.9248C59.8149 47.7119 60.3286 46.8198 60.5751 45.4615C60.5135 44.6505 60.7087 43.6571 61.2019 42.5623C61.4176 42.0757 61.7361 41.7311 62.2395 41.9135C62.5991 42.0352 62.7943 42.4204 62.558 42.8664C61.8697 44.1437 61.8183 45.0256 62.1471 45.4716H62.1676Z" fill="#E3E3E3"/>
<path d="M50.1985 55.2546C49.2944 56.0453 48.9143 55.954 48.1437 55.1025L46.8184 53.6428L48.2773 52.3554L49.4177 53.6124C49.5101 53.7239 49.6334 53.734 49.7464 53.6327L53.6403 50.1962C54.041 49.8414 54.4725 49.8718 54.7704 50.1962C55.0684 50.5206 55.0581 50.9565 54.6574 51.3113L50.1985 55.2444V55.2546ZM53.0033 56.4913C53.3834 56.1568 53.8355 56.1669 54.154 56.5217C54.4725 56.8664 54.4622 57.3225 54.0718 57.6672L53.5581 58.1233L53.7122 58.2957C54.1334 58.762 54.0101 59.2992 53.63 59.6338C53.2499 59.9683 52.6951 60.0291 52.2738 59.5628L49.4382 56.4406L50.8766 55.1735L52.4896 56.9475L53.0033 56.4913ZM55.4074 51.3012C55.7875 50.9666 56.2396 50.9362 56.5992 51.3316C56.8458 51.6053 56.8663 51.9398 56.6711 52.2946C56.2601 53.1055 56.3115 53.8557 57.1437 54.8288L57.38 55.1025C57.7293 55.508 57.606 56.0149 57.1951 56.3595C56.8047 56.694 56.2807 56.7244 55.9211 56.3291L55.6951 56.0757C55.5101 55.8729 55.3663 55.6803 55.2327 55.4776C54.0821 56.2886 52.8697 56.1669 51.6779 54.7477L53.0547 53.5313C53.5889 54.2206 54.1334 54.3727 54.6471 54.0787C54.4108 52.8927 54.8012 51.8181 55.3869 51.3012H55.4074Z" fill="#E3E3E3"/>
<path d="M39.2975 57.2095C38.753 57.3514 38.455 57.0777 38.3523 56.7026C38.2496 56.3276 38.3831 55.9322 38.9174 55.7903L44.6502 54.29C45.6982 54.0163 46.068 54.3002 46.3352 55.2936L46.4893 55.8511C46.6331 56.3985 46.2735 56.7939 45.7495 56.9358C45.2256 57.0676 44.7324 56.8851 44.5886 56.3478L44.4961 56.0032C44.4653 55.8714 44.4139 55.8613 44.2906 55.8917L39.2872 57.1993L39.2975 57.2095ZM39.8728 62.3489C39.3078 62.501 39.0201 62.1057 38.9174 61.7407C38.8146 61.3657 38.8763 60.8892 39.4413 60.7473L39.729 60.6662L39.0201 58.0407L40.8386 57.5643L42.3591 63.2106C42.5132 63.7783 42.1742 64.204 41.6811 64.3358C41.1879 64.4676 40.6948 64.2547 40.5406 63.687L40.1605 62.2678L39.8728 62.3388V62.3489ZM46.7667 56.9865C47.2906 56.8547 47.6091 57.098 47.7119 57.4933C47.8146 57.8684 47.6811 58.2739 47.1468 58.4056L45.8626 58.7402L46.0167 59.3078H46.068C47.2393 58.9835 48.0612 59.5714 48.318 60.5344V60.5648C48.5852 61.5278 48.1537 62.43 46.9927 62.7443L44.9893 63.2714C43.8283 63.5755 43.0269 62.9876 42.7598 62.0246V61.9941C42.4927 61.0311 42.9037 60.1289 44.0646 59.8248L44.2393 59.7741L44.0852 59.2065L42.5543 59.612C42.0201 59.7539 41.7016 59.47 41.6091 59.095C41.5064 58.7098 41.6502 58.3347 42.1742 58.1928L46.7667 56.9966V56.9865ZM46.5612 61.0007C46.479 60.7067 46.253 60.5851 45.9139 60.6763L44.8968 60.9399C44.568 61.021 44.4345 61.2339 44.5167 61.5278V61.5583C44.5989 61.8421 44.8249 61.984 45.1537 61.8928L46.1708 61.6292C46.5098 61.538 46.6434 61.3048 46.5715 61.021V60.9906L46.5612 61.0007Z" fill="#E3E3E3"/>
<path d="M29.568 56.0351C29.0132 55.9135 28.8591 55.508 28.9413 55.1228C29.0235 54.7275 29.3317 54.4335 29.8865 54.5551L37.1605 56.0757C37.705 56.1872 37.8694 56.5825 37.7872 56.9779C37.705 57.3631 37.3968 57.6773 36.842 57.5557L35.8249 57.3428L35.5269 58.7113C36.4619 59.0357 36.8317 59.7453 36.6468 60.6272L36.6057 60.7995C36.39 61.7929 35.6194 62.2795 34.3865 62.0261L30.2564 61.1644L30.1947 61.4584C30.1639 61.5801 30.1742 61.7321 30.39 61.7727L35.3112 62.8066C35.753 62.8979 35.9482 63.3236 35.866 63.6987C35.7838 64.0636 35.4345 64.3779 34.9927 64.2866L29.4961 63.1412C28.2119 62.8675 27.9653 62.2187 28.1502 61.3368L28.5817 59.3398L34.1913 60.5157C34.4071 60.5562 34.5304 60.4751 34.5715 60.3028C34.6126 60.1102 34.5304 59.9987 34.3146 59.9581L29.1776 58.8836C28.6537 58.7721 28.5406 58.3362 28.6228 57.9916C28.6947 57.6469 28.9824 57.3124 29.4961 57.4239L30.2872 57.5861L30.5749 56.2379L29.5578 56.025L29.568 56.0351ZM33.7084 58.3058L33.9961 56.9576L32.4242 56.6332L32.1365 57.9814L33.7084 58.3058Z" fill="#E3E3E3"/>
<path d="M59.1165 25.057C58.6131 25.3611 58.0172 25.2293 57.709 24.7326C57.3905 24.2257 57.5446 23.6378 58.048 23.3337C58.5515 23.0296 59.1474 23.1614 59.4659 23.6682C59.7741 24.1649 59.62 24.7529 59.1268 25.057H59.1165Z" fill="#E3E3E3"/>
<path d="M14.4864 48.4646C14.2193 47.9375 14.4145 47.3597 14.9384 47.0961C15.4624 46.8326 16.048 47.015 16.3254 47.5422C16.5925 48.0591 16.3871 48.6369 15.8631 48.9005C15.3391 49.1641 14.7535 48.9816 14.4864 48.4646Z" fill="#E3E3E3"/>
<path d="M12.8837 28.3766L12.0002 30.5865C11.7844 31.1136 11.507 31.2555 11.1372 31.1136C10.7776 30.9717 10.644 30.6878 10.8598 30.1404L11.7228 28.0015C11.3632 27.7988 11.2399 27.3426 11.4557 26.8054C11.6714 26.2681 12.0824 26.0248 12.4831 26.116L13.3358 23.9974C13.5515 23.4602 13.8495 23.3385 14.2091 23.4804C14.5789 23.6223 14.692 23.9163 14.4762 24.4434L13.5721 26.6837C13.6748 26.7445 13.7673 26.8256 13.8495 26.8966C14.2502 25.1834 15.1748 23.9265 16.7159 24.1292L15.9865 25.9539C15.257 26.1667 14.7331 27.0588 14.4762 28.4171C14.5379 29.2281 14.3324 30.2215 13.8392 31.3062C13.6235 31.7826 13.2947 32.1273 12.7913 31.9448C12.442 31.813 12.2365 31.4278 12.4728 30.9919C13.1714 29.7147 13.2228 28.8328 12.894 28.3867L12.8837 28.3766ZM20.4762 26.258C20.62 25.893 20.9077 25.8525 21.1748 25.9539C21.442 26.0552 21.6063 26.2681 21.4625 26.6432L18.9248 32.9686C18.6166 33.7289 18.0105 33.9012 17.4248 33.6782H17.394C16.8084 33.4349 16.531 32.9281 16.8392 32.1577L18.7502 27.4136L18.5858 27.3528C18.5036 27.3223 18.4522 27.3528 18.4111 27.444L16.3461 32.5834C16.2125 32.9078 15.9146 32.9991 15.6577 32.8977C15.4009 32.7963 15.2365 32.553 15.3803 32.1982L16.3461 29.7958L16.0379 29.6741L14.9899 32.2895C14.8255 32.6949 14.5584 32.847 14.1783 32.7051C13.8084 32.5632 13.7057 32.2692 13.8803 31.8536L16.7159 24.8084C16.8803 24.3928 17.1577 24.2508 17.5276 24.3928C17.9077 24.5448 18.0002 24.8286 17.8358 25.2443L16.7879 27.8596L17.0961 27.9812L17.8563 26.0856C18.1646 25.3355 18.5447 25.2037 19.0892 25.4166L20.3324 25.9032L18.0618 31.5596C18.0207 31.6508 18.0824 31.7218 18.1543 31.7522C18.2159 31.7725 18.3084 31.7522 18.3392 31.6711L20.507 26.2681L20.4762 26.258Z" fill="#E3E3E3"/>
<path d="M19.6757 22.5976C19.2955 22.9321 18.8332 22.9625 18.4839 22.557C18.2373 22.2833 18.2168 21.9488 18.4222 21.594C18.8435 20.7831 18.7921 20.0329 17.9702 19.0598L17.7339 18.7861C17.3948 18.3705 17.5181 17.8636 17.9188 17.5291C18.3092 17.1946 18.8332 17.1743 19.1928 17.5696L19.4188 17.8231C19.5935 18.0258 19.7476 18.2184 19.8811 18.4211C21.0318 17.6203 22.2544 17.742 23.4257 19.1713L22.0387 20.3877C21.5044 19.6984 20.9702 19.5362 20.4462 19.8302C20.6722 21.0162 20.2818 22.0907 19.6859 22.6077L19.6757 22.5976ZM24.9154 18.6746C25.8195 17.8839 26.1996 17.9853 26.9702 18.8368L28.2852 20.2965L26.8263 21.5738L25.6962 20.3066C25.6037 20.1951 25.4805 20.185 25.3674 20.2864L21.4531 23.7025C21.0524 24.0573 20.6209 24.0269 20.3229 23.6924C20.025 23.3579 20.0455 22.9321 20.4462 22.5773L24.9257 18.6644L24.9154 18.6746ZM22.1106 17.4176C21.7305 17.7521 21.2784 17.742 20.9599 17.377C20.6414 17.0324 20.662 16.5661 21.0524 16.2316L21.5763 15.7754L21.4222 15.6031C21.001 15.1368 21.1243 14.5995 21.5147 14.265C21.9051 13.9305 22.4599 13.8798 22.8709 14.3359L25.6859 17.4784L24.2373 18.7455L22.6346 16.9614L22.1106 17.4176Z" fill="#E3E3E3"/>
<path d="M28.3563 16.9503C27.8323 17.0821 27.5138 16.8287 27.4111 16.4435C27.3083 16.0684 27.4419 15.6629 27.9761 15.5311L29.2707 15.1966L29.1166 14.6289H29.0652C27.8939 14.9432 27.072 14.3552 26.8255 13.3922V13.3618C26.5686 12.3988 27.0001 11.4966 28.1713 11.1925L30.1748 10.6856C31.3357 10.3917 32.1371 10.9796 32.3939 11.9426V11.973C32.6508 12.9361 32.2398 13.8382 31.0789 14.1322L30.9042 14.1728L31.0583 14.7404L32.5892 14.3451C33.1234 14.2133 33.4419 14.4972 33.5344 14.8722C33.6371 15.2574 33.483 15.6325 32.959 15.7643L28.3666 16.9402L28.3563 16.9503ZM28.5823 12.9462C28.6645 13.2402 28.8905 13.3618 29.2296 13.2706L30.2467 13.007C30.5755 12.9259 30.709 12.713 30.6371 12.4191V12.3887C30.5549 12.1048 30.3289 11.9629 30.0001 12.044L28.983 12.3076C28.6439 12.3887 28.5104 12.6218 28.5823 12.9158V12.9462ZM35.8255 16.7678C36.37 16.6259 36.6679 16.9098 36.7707 17.2747C36.8734 17.6498 36.7296 18.0451 36.1953 18.1769L30.4522 19.6467C29.4042 19.9103 29.0344 19.6265 28.7672 18.633L28.6234 18.0654C28.4796 17.518 28.8494 17.1226 29.3734 16.9909C29.8974 16.8591 30.3905 17.0517 30.5241 17.5788L30.6166 17.9235C30.6474 18.0552 30.6987 18.0755 30.822 18.035L35.8255 16.7577V16.7678ZM35.2809 11.6284C35.8563 11.4865 36.1337 11.8717 36.2261 12.2467C36.3289 12.6218 36.257 13.0982 35.7022 13.2402L35.4145 13.3111L36.1029 15.9467L34.2741 16.413L32.7844 10.7566C32.6302 10.1788 32.9693 9.76318 33.4727 9.6314C33.9761 9.49962 34.459 9.7125 34.6131 10.2903L34.983 11.7095L35.2707 11.6385L35.2809 11.6284Z" fill="#E3E3E3"/>
<path d="M45.5442 18.0043C46.099 18.126 46.2429 18.5314 46.1607 18.9166C46.0785 19.312 45.76 19.606 45.2155 19.4843L37.9415 17.9131C37.397 17.7914 37.2326 17.3961 37.3251 17.0109C37.4073 16.6257 37.7155 16.3114 38.2703 16.4331L39.2874 16.6561L39.5853 15.2876C38.6504 14.9531 38.2805 14.2435 38.4758 13.3616L38.5169 13.1892C38.7326 12.1958 39.5134 11.7194 40.7463 11.9829L44.8764 12.875L44.9381 12.581C44.9689 12.4594 44.9586 12.3175 44.7429 12.2668L39.8216 11.2024C39.3799 11.1112 39.1847 10.6854 39.2669 10.3002C39.349 9.93527 39.7086 9.62102 40.1504 9.72239L45.6367 10.9084C46.921 11.1821 47.1573 11.841 46.9621 12.7128L46.5203 14.7098L40.921 13.5035C40.7052 13.4528 40.5819 13.5339 40.5408 13.7164C40.4997 13.909 40.5819 14.0205 40.7977 14.061L45.9244 15.166C46.4381 15.2775 46.5511 15.7133 46.4792 16.058C46.4073 16.4027 46.1093 16.727 45.6059 16.6257L44.8148 16.4533L44.5169 17.7914L45.534 18.0144L45.5442 18.0043ZM41.4244 15.7133L41.1264 17.0514L42.6984 17.386L42.9963 16.0479L41.4244 15.7133Z" fill="#E3E3E3"/>
</g>
<defs>
<clipPath id="clip0_2934_2992">
<rect width="75" height="74" fill="white"/>
</clipPath>
</defs>
</svg>
