<svg width="18" height="18" viewBox="0 0 18 18" fill="none" xmlns="http://www.w3.org/2000/svg">
<path d="M7.14828 15.0233L12.7733 9.39828C12.8256 9.34604 12.8671 9.284 12.8954 9.21572C12.9237 9.14743 12.9382 9.07423 12.9382 9.00031C12.9382 8.92639 12.9237 8.85319 12.8954 8.78491C12.8671 8.71662 12.8256 8.65458 12.7733 8.60234L7.14828 2.97734C7.04273 2.8718 6.89958 2.8125 6.75031 2.8125C6.60105 2.8125 6.45789 2.8718 6.35234 2.97734C6.2468 3.08289 6.1875 3.22605 6.1875 3.37531C6.1875 3.52458 6.2468 3.66773 6.35234 3.77328L11.5801 9.00031L6.35234 14.2273C6.30008 14.2796 6.25863 14.3416 6.23034 14.4099C6.20206 14.4782 6.1875 14.5514 6.1875 14.6253C6.1875 14.6992 6.20206 14.7724 6.23034 14.8407C6.25863 14.909 6.30008 14.971 6.35234 15.0233C6.40461 15.0755 6.46665 15.117 6.53493 15.1453C6.60322 15.1736 6.6764 15.1881 6.75031 15.1881C6.82422 15.1881 6.89741 15.1736 6.96569 15.1453C7.03397 15.117 7.09602 15.0755 7.14828 15.0233Z" fill="black"/>
</svg>
