<svg width="22" height="21" fill="none" xmlns="http://www.w3.org/2000/svg"><g clip-path="url(#a)" fill="#F22C2D"><path d="M12.477 11.794c.358 0 .641-.29.641-.641V8.177h2.976a.641.641 0 1 0 0-1.283h-2.976V3.92a.641.641 0 1 0-1.282 0v2.975H8.86a.641.641 0 1 0 0 1.283h2.976v2.976c0 .358.29.641.641.641Z"/><path d="M20.898 4.577h-.53l-.962 3.34-1.61 5.81a.743.743 0 0 1-.717.545H7.87a.743.743 0 0 1-.716-.545l-1.2-4.31h-.008L5.34 7.209l-.314-1.14-.41-1.492h-.015l-.887-3.185a.743.743 0 0 0-.716-.544H.76a.748.748 0 0 0-.745.745c0 .41.335.746.745.746h1.671l3.274 11.784a2.244 2.244 0 0 0 2.163 1.64h9.21c1 0 1.88-.67 2.148-1.64l2.394-8.6a.934.934 0 0 0 .03-.2.748.748 0 0 0-.746-.746h-.008ZM7.476 20.237a1.492 1.492 0 1 0 0-2.983 1.492 1.492 0 0 0 0 2.983ZM17.171 20.237a1.492 1.492 0 1 0 0-2.983 1.492 1.492 0 0 0 0 2.983Z"/></g><defs><clipPath id="a"><path fill="#fff" transform="translate(.016 .848)" d="M0 0h21.628v19.39H0z"/></clipPath></defs></svg>