<svg width="21" height="18" fill="none" xmlns="http://www.w3.org/2000/svg"><path d="M18.759 3.453H2.432a1.02 1.02 0 0 1 0-2.041H16.31a.612.612 0 1 0 0-1.224H2.432A2.245 2.245 0 0 0 .188 2.432v13.062a2.245 2.245 0 0 0 2.244 2.244H18.76a1.429 1.429 0 0 0 1.428-1.428V4.88a1.429 1.429 0 0 0-1.428-1.428Zm.204 12.857a.204.204 0 0 1-.204.204H2.432a1.02 1.02 0 0 1-1.02-1.02V4.43c.316.162.666.247 1.02.246H18.76a.204.204 0 0 1 .204.204V16.31Zm-2.857-6.122a1.02 1.02 0 1 1-2.041 0 1.02 1.02 0 0 1 2.04 0Z" fill="#000"/></svg>