<svg width="162" height="60" fill="none" xmlns="http://www.w3.org/2000/svg"><g clip-path="url(#a)"><path d="m68.424 47.054-62.282.3 2.754-29.368 62.292-.3-2.764 29.368Z" fill="#000"/><path d="M28.178 51.081c-.589 0-1.148-.259-1.527-.708l-.12-.15h-.02c-2.494.38-4.948.619-7.282.719-2.305.09-4.65.14-6.974.14h-8.26c-.59 0-1.148-.26-1.527-.709a1.999 1.999 0 0 1-.439-1.626l5.737-32.534a1.991 1.991 0 0 1 1.965-1.646h21.27c.489 0 .958.18 1.317.499.36-.549.978-.898 1.666-.898h9.298c.589 0 1.148.26 1.527.708a2 2 0 0 1 .439 1.627l-1.996 11.303h1.297c.589 0 1.148.26 1.527.708.379.45.538 1.048.439 1.627l-.779 4.39a1.99 1.99 0 0 1-1.965 1.645h-1.995l-2.335 13.24a1.991 1.991 0 0 1-1.965 1.645h-9.298v.02Zm-11.733-8.38c1.537 0 3.143-.05 4.76-.14 1.585-.09 3.421-.299 5.446-.638a1.809 1.809 0 0 1 .749.02l1.027-5.826c-.17.05-.359.08-.549.08H17.583L16.435 42.7h.01Zm12.222-14.885c.429 0 .838.14 1.167.38l.938-5.328c-.17.05-.36.08-.55.08H19.928l-.858 4.868h9.598Z" fill="#fff"/><path d="M43.282 16.163 40.877 29.81h3.671l-.778 4.39H40.1l-2.624 14.884h-9.298l5.806-32.922h9.299ZM31 16.562l-.778 4.39H18.25l-1.566 8.858h11.972l-.778 4.39H15.906L14.06 44.696h2.354c1.597 0 3.223-.05 4.899-.14 1.666-.09 3.552-.31 5.667-.658l-.768 4.35c-2.435.368-4.79.608-7.064.698-2.274.09-4.57.14-6.884.14h-8.27L9.73 16.561H31Zm12.282-4.39h-9.299c-.718 0-1.396.19-1.975.529-.32-.08-.659-.13-.998-.13H9.73a3.991 3.991 0 0 0-3.93 3.302L.062 48.397a3.96 3.96 0 0 0 .878 3.262 3.973 3.973 0 0 0 3.053 1.427h8.26c2.355 0 4.72-.05 7.054-.14 2.115-.09 4.31-.29 6.554-.598a3.986 3.986 0 0 0 2.325.748h9.298a3.99 3.99 0 0 0 3.93-3.302l2.046-11.583h.32a3.99 3.99 0 0 0 3.93-3.303l.748-4.23a3.995 3.995 0 0 0-2.843-4.699l1.606-9.108a3.96 3.96 0 0 0-.878-3.262 3.973 3.973 0 0 0-3.053-1.427l-.01-.01Zm-21.68 12.77h6.785l-.16.878h-6.784l.16-.878ZM19.268 38.19h6.784l-.33 1.865c-1.715.27-3.272.44-4.628.52-.759.04-1.517.07-2.265.099l.439-2.474v-.01Z" fill="#040000"/><path d="M43.198 51.08c-.589 0-1.148-.26-1.527-.71a2 2 0 0 1-.439-1.625l2.315-13.13a1.99 1.99 0 0 1 1.965-1.646h.699c-1.108-1.027-1.906-2.304-2.375-3.79-.459-1.467-.529-3.133-.21-4.93.31-1.755.938-3.351 1.866-4.748a13.097 13.097 0 0 1 3.422-3.492c1.327-.918 2.843-1.626 4.52-2.115 1.646-.479 3.412-.718 5.237-.718 1.826 0 3.552.25 5.068.738 1.587.509 2.944 1.267 4.03 2.255a8.696 8.696 0 0 1 2.455 3.82c.13.41.24.839.31 1.278l1.137-6.445a1.991 1.991 0 0 1 1.965-1.646h9.298c.589 0 1.148.26 1.527.708a2 2 0 0 1 .439 1.626l-3.243 18.397c-.04.25-.13.47-.249.679.04.239.05.478 0 .718l-2.315 13.13a1.991 1.991 0 0 1-1.965 1.645h-33.93Zm23.724-8.381.06-.36H55.708l-.06.36h11.274Zm1.546-8.74.769-4.37c-.19.37-.41.729-.639 1.078a12.811 12.811 0 0 1-3.153 3.282h3.023v.01ZM57.783 22.556l-.08.04c-.189.15-.369.35-.518.609-.2.339-.38.738-.509 1.187-.16.519-.29 1.027-.38 1.536-.089.499-.139 1.008-.169 1.517-.02.399.01.738.09 1.017.01.05.03.1.04.14.03 0 .05-.02.08-.05a2 2 0 0 0 .518-.589c.21-.359.4-.768.55-1.227.169-.509.299-1.007.378-1.496.08-.479.13-.978.15-1.477 0-.399-.03-.758-.11-1.057-.01-.04-.03-.1-.05-.15h.01Z" fill="#fff"/><path d="m82.925 16.163-3.242 18.396h-9.299l3.243-18.396h9.298Zm-24.263 0c1.646 0 3.133.209 4.46.638 1.326.429 2.424 1.038 3.312 1.836.888.798 1.516 1.785 1.895 2.953.38 1.167.44 2.504.18 3.99-.26 1.487-.788 2.824-1.567 3.991a10.798 10.798 0 0 1-2.913 2.953c-1.167.798-2.484 1.407-3.95 1.836-1.477.429-3.033.638-4.68.638-1.646 0-3.142-.21-4.479-.638-1.337-.43-2.434-1.038-3.312-1.836-.868-.798-1.487-1.786-1.856-2.953-.369-1.167-.419-2.504-.15-3.99.26-1.487.779-2.824 1.557-3.991a11.011 11.011 0 0 1 2.893-2.953c1.147-.798 2.464-1.407 3.93-1.836 1.477-.429 3.034-.638 4.68-.638Zm-2.504 14.446c.508 0 .967-.15 1.377-.46.409-.309.758-.698 1.047-1.177.28-.478.529-1.017.728-1.616a11.876 11.876 0 0 0 .619-3.551 6.238 6.238 0 0 0-.17-1.617 2.654 2.654 0 0 0-.648-1.177c-.31-.31-.708-.459-1.217-.459-.53 0-.998.15-1.397.46-.4.308-.738.697-1.028 1.176a7.462 7.462 0 0 0-.708 1.617c-.19.598-.33 1.187-.429 1.775-.1.589-.17 1.178-.19 1.776-.03.599.02 1.138.15 1.616.13.48.34.868.629 1.178.289.309.708.459 1.237.459Zm23.285 5.347-2.314 13.13h-33.92l2.314-13.13h33.92Zm-10.076 4.39H54.043l-.768 4.35h15.324l.768-4.35Zm13.558-28.174h-9.298a3.99 3.99 0 0 0-3.931 3.302l-.12.669c-.15-.16-.309-.31-.479-.46-1.297-1.177-2.903-2.075-4.758-2.673-1.716-.549-3.622-.828-5.677-.828-2.055 0-3.96.27-5.787.798-1.885.549-3.601 1.347-5.098 2.394a14.677 14.677 0 0 0-3.94 4.02c-1.078 1.627-1.806 3.483-2.165 5.508-.37 2.115-.28 4.09.279 5.876.24.778.559 1.507.958 2.195a3.937 3.937 0 0 0-1.297 2.305l-2.315 13.129a3.96 3.96 0 0 0 .878 3.262 3.973 3.973 0 0 0 3.053 1.427h33.92a3.991 3.991 0 0 0 3.931-3.302l2.315-13.13c.04-.239.06-.468.06-.708.08-.22.14-.449.19-.688l3.242-18.397a3.96 3.96 0 0 0-.878-3.262 3.973 3.973 0 0 0-3.053-1.427l-.03-.01Z" fill="#040000"/><path d="M96.463 57.107c-2.474 0-4.41-.18-5.886-.558-1.028-.26-1.936-.659-2.704-1.197-.21.13-.419.239-.629.349-.718.359-1.526.648-2.394.858-.818.2-1.736.339-2.753.429-.978.08-2.105.13-3.352.13-.59 0-1.148-.26-1.527-.709a1.999 1.999 0 0 1-.439-1.626l.778-4.43a1.991 1.991 0 0 1 1.966-1.646c1.646 0 2.234-.27 2.384-.35.09-.049.26-.149.36-.678l4.489-25.46a1.991 1.991 0 0 1 1.965-1.646h9.258c.589 0 1.148.26 1.527.708.379.45.538 1.048.439 1.627l-1.846 10.465h1.257l2.035-11.563a1.992 1.992 0 0 1 1.966-1.646h8.26c.23 0 .459.04.679.12a1.9 1.9 0 0 1 .678-.12h8.261c.588 0 1.147.26 1.526.708.379.45.539 1.048.439 1.627l-5.806 32.922a1.992 1.992 0 0 1-1.966 1.647h-8.26c-.23 0-.459-.04-.679-.12a1.9 1.9 0 0 1-.678.12h-8.26c-.16 0-.32-.02-.47-.06-.2.06-.399.1-.618.1Zm-1.028-8.63c.19.07.559.16 1.217.19l1.218-6.924h-1.258l-1.167 6.615s-.01.09-.02.12h.01Z" fill="#fff"/><path d="m121.234 22.147-5.806 32.923h-8.261l5.806-32.923h8.261Zm-9.617 0L105.81 55.07h-8.26l2.703-15.324h-3.511l.778-4.39h3.511l2.325-13.21h8.261Zm-13.638.399-4.49 25.46c-.17.958.06 1.646.678 2.055.619.41 1.647.619 3.083.619l-.778 4.43c-2.285 0-4.09-.17-5.397-.5-1.317-.328-2.325-.937-3.053-1.815a8.174 8.174 0 0 1-1.676 1.117 9.018 9.018 0 0 1-1.956.699c-.718.17-1.546.299-2.464.379-.918.08-1.975.12-3.172.12l.778-4.43c1.546 0 2.674-.21 3.382-.619.708-.409 1.147-1.097 1.317-2.055l4.49-25.46h9.258Zm23.255-4.39h-8.271c-.229 0-.459.02-.678.06a3.809 3.809 0 0 0-.678-.06h-8.271a3.969 3.969 0 0 0-2.903 1.257 3.952 3.952 0 0 0-2.464-.858H88.71a3.99 3.99 0 0 0-3.93 3.303l-4.37 24.801c-.22.02-.509.04-.888.04a3.99 3.99 0 0 0-3.93 3.303l-.78 4.43a3.96 3.96 0 0 0 .879 3.261 3.988 3.988 0 0 0 3.053 1.427c1.307 0 2.484-.05 3.521-.13 1.108-.1 2.135-.259 3.043-.478.888-.21 1.726-.5 2.504-.858.699.359 1.457.638 2.275.848 1.646.419 3.731.618 6.375.618.23 0 .469-.02.688-.06.13.01.26.02.4.02h8.26c.23 0 .459-.02.679-.06.219.04.449.06.678.06h8.261a3.99 3.99 0 0 0 3.93-3.302l5.777-32.763a3.99 3.99 0 0 0-3.901-4.839v-.02Z" fill="#040000"/><path d="M118.284 57.068c-.589 0-1.148-.26-1.527-.709a1.999 1.999 0 0 1-.439-1.626l1.686-9.578c.03-.17.08-.329.15-.488-.01-.17 0-.34.02-.51l.758-4.31a1.991 1.991 0 0 1 1.965-1.645h.08a7.6 7.6 0 0 1-1.875-2.913c-.499-1.397-.589-3.023-.27-4.859.31-1.776.948-3.342 1.876-4.64a11.424 11.424 0 0 1 3.432-3.162c1.317-.788 2.813-1.366 4.479-1.736a23.745 23.745 0 0 1 5.078-.528c1.776 0 3.462.18 4.949.528 1.606.38 2.983.998 4.1 1.846a7.647 7.647 0 0 1 2.973 4.799l1.008-5.727a1.99 1.99 0 0 1 1.965-1.646h9.298c.589 0 1.148.26 1.527.708.379.45.539 1.048.439 1.627l-2.963 16.8c-.04.22-.11.42-.21.599.03.21.03.419 0 .638l-1.646 9.338c.19.38.259.808.18 1.237l-.759 4.31a1.99 1.99 0 0 1-1.965 1.647h-34.319.01Zm25.57-18.876.618-3.502c-.199.37-.419.728-.668 1.068a11.415 11.415 0 0 1-2.365 2.434h2.415Zm-12.302-5.388c.509 0 .619-.15.699-.259.349-.499.608-1.217.768-2.125.15-.828.12-1.357.05-1.686h-.13c-.509 0-.598.14-.658.23-.34.528-.599 1.247-.759 2.154-.149.838-.129 1.367-.079 1.686h.119-.01Z" fill="#fff"/><path d="m158.01 22.147-2.964 16.8h-9.298l2.963-16.8h9.299Zm-24.303.2c1.646 0 3.142.159 4.489.478 1.347.32 2.464.818 3.372 1.497a5.672 5.672 0 0 1 1.956 2.614c.399 1.067.468 2.344.199 3.83-.259 1.487-.778 2.764-1.536 3.832a9.297 9.297 0 0 1-2.854 2.614c-1.147.678-2.444 1.177-3.891 1.496-1.456.32-3.002.479-4.649.479-1.646 0-3.152-.16-4.509-.479-1.357-.32-2.474-.818-3.372-1.496a5.654 5.654 0 0 1-1.916-2.614c-.389-1.068-.449-2.345-.179-3.831.259-1.487.778-2.764 1.536-3.831a9.33 9.33 0 0 1 2.834-2.614c1.127-.679 2.424-1.177 3.87-1.497a21.658 21.658 0 0 1 4.65-.479Zm-2.155 12.45c1.037 0 1.815-.369 2.334-1.117.519-.748.878-1.716 1.088-2.913.209-1.168.179-2.135-.09-2.893-.27-.759-.918-1.138-1.956-1.138-1.037 0-1.845.38-2.334 1.137-.489.759-.838 1.726-1.048 2.894-.209 1.197-.199 2.165.04 2.913.24.748.898 1.117 1.956 1.117m23.285 5.388-1.696 9.617h-24.822l-.169.958h25.22l-.758 4.31h-34.319l1.686-9.578h24.822l.179-.997h-24.822l.759-4.31h33.92Zm3.183-22.029h-9.299a3.99 3.99 0 0 0-3.93 3.303l-.06.309a9.809 9.809 0 0 0-.768-.639c-1.337-1.007-2.974-1.746-4.839-2.185-1.636-.389-3.462-.588-5.407-.588-1.946 0-3.782.19-5.508.568-1.865.41-3.571 1.078-5.068 1.976a13.296 13.296 0 0 0-4.03 3.721c-1.108 1.547-1.846 3.382-2.215 5.457-.389 2.175-.259 4.16.359 5.877.2.548.439 1.057.709 1.546a4.049 4.049 0 0 0-.978 1.985l-.758 4.31c-.03.17-.05.34-.06.499-.05.16-.09.33-.12.499l-1.686 9.577a3.959 3.959 0 0 0 .878 3.263 3.972 3.972 0 0 0 3.053 1.426h34.319a3.99 3.99 0 0 0 3.931-3.302l.758-4.31c.11-.598.07-1.197-.09-1.766l1.527-8.65c.06-.259.09-.518.09-.788.069-.19.119-.399.159-.598l2.963-16.8a3.956 3.956 0 0 0-.878-3.263 3.971 3.971 0 0 0-3.052-1.427Z" fill="#040000"/><path d="M78.32 5.468 65.829 1.777a.99.99 0 0 0-.908.19L48.82 15.902a.988.988 0 0 0-.12 1.377c.13.15.3.26.49.31l8.23 2.434L45.167 33.88a.975.975 0 0 0 .09 1.367c.3.27.739.31 1.098.12l27.904-15.155a.979.979 0 0 0 .37-1.326.93.93 0 0 0-.56-.45l-6.065-1.795 10.675-9.528a.974.974 0 0 0 .08-1.367.956.956 0 0 0-.45-.279h.01Z" fill="url(#b)" stroke="#000" stroke-width="2.93" stroke-linejoin="round"/></g><defs><linearGradient id="b" x1="61.965" y1="1.738" x2="61.965" y2="35.485" gradientUnits="userSpaceOnUse"><stop stop-color="#612CF9"/><stop offset="1" stop-color="#2C166A"/></linearGradient><clipPath id="a"><path fill="#fff" transform="translate(0 .27)" d="M0 0h162v58.832H0z"/></clipPath></defs></svg>