<svg xmlns="http://www.w3.org/2000/svg" width="46" height="14" fill="none"><g clip-path="url(#a)"><path fill="#EAEAEA" stroke="#EAEAEA" stroke-width=".3" d="M36.269.878c.299-.22.697-.34 1.106-.34.41 0 .807.12 1.106.34.3.222.483.534.483.873 0 .338-.183.65-.483.872L24.106 13.248c-.148.11-.322.195-.511.253a2.037 2.037 0 0 1-1.19 0 1.692 1.692 0 0 1-.511-.253L7.519 2.623a1.257 1.257 0 0 1-.354-.392.979.979 0 0 1-.128-.48c0-.167.044-.33.128-.48.084-.15.205-.283.354-.393.149-.11.323-.195.512-.253a2.038 2.038 0 0 1 1.188 0l-.043.143.043-.143c.19.058.364.143.512.253l13.27 9.809L36.268.878Z"/></g><defs><clipPath id="a"><path fill="#fff" d="M46 0H0v14h46z"/></clipPath></defs></svg>