<svg width="24" height="24" fill="none" xmlns="http://www.w3.org/2000/svg"><path d="M18.454 4.72v.806l-3.937-2.231c-1.49-.838-3.57-.838-5.049 0L5.531 5.537v-.816c0-2.45 1.368-3.8 3.87-3.8h5.183c2.502 0 3.87 1.35 3.87 3.8Z" fill="#F22C2D"/><path d="m18.255 7.74-.15-.076-1.457-.853-3.023-1.784c-.922-.547-2.337-.547-3.26 0L7.344 6.8l-1.458.875-.193.098c-1.876 1.291-2.005 1.532-2.005 3.6v4.945c0 2.067.13 2.308 2.048 3.632l4.63 2.724c.462.284 1.04.405 1.63.405.58 0 1.169-.132 1.63-.405l4.673-2.757c1.887-1.29 2.005-1.52 2.005-3.6v-4.944c0-2.068-.129-2.309-2.048-3.632Zm-3.269 6.05-.654.821a.802.802 0 0 0-.171.514l.064 1.05c.043.646-.407.974-.997.744l-.954-.393a.931.931 0 0 0-.547 0l-.954.383c-.59.24-1.04-.099-.997-.744l.065-1.05a.803.803 0 0 0-.172-.515l-.665-.81c-.407-.492-.225-1.039.386-1.203l.997-.262a.865.865 0 0 0 .429-.329l.557-.875c.344-.547.89-.547 1.244 0l.557.875a.85.85 0 0 0 .43.329l.996.262c.611.164.793.711.386 1.204Z" fill="#F22C2D"/></svg>