<svg width="24" height="24" fill="none" xmlns="http://www.w3.org/2000/svg"><path d="M15.605 12.336a5.602 5.602 0 0 0 2.008-4.297A5.62 5.62 0 0 0 12 2.426a5.62 5.62 0 0 0-5.613 5.613c0 1.724.782 3.267 2.008 4.297-3.932.821-6.895 4.313-6.895 8.485a.75.75 0 1 0 1.5 0c0-3.953 3.215-7.168 7.168-7.168h3.664c3.953 0 7.168 3.215 7.168 7.168a.75.75 0 1 0 1.5 0c0-4.172-2.963-7.664-6.895-8.485ZM7.887 8.04A4.118 4.118 0 0 1 12 3.926a4.118 4.118 0 0 1 4.113 4.113A4.118 4.118 0 0 1 12 12.153a4.118 4.118 0 0 1-4.113-4.114Z" fill="#000"/></svg>