<svg width="14" height="14" fill="none" xmlns="http://www.w3.org/2000/svg"><path d="M9.288 7.213a3.565 3.565 0 0 0 1.278-2.734A3.576 3.576 0 0 0 6.994.906 3.576 3.576 0 0 0 3.422 4.48c0 1.096.498 2.078 1.278 2.734a5.525 5.525 0 0 0-4.388 5.4.477.477 0 1 0 .955 0A4.567 4.567 0 0 1 5.83 8.05H8.16a4.567 4.567 0 0 1 4.562 4.562.477.477 0 1 0 .954 0 5.525 5.525 0 0 0-4.388-5.4ZM4.377 4.479A2.62 2.62 0 0 1 6.994 1.86a2.62 2.62 0 0 1 2.618 2.618 2.62 2.62 0 0 1-2.618 2.617A2.62 2.62 0 0 1 4.377 4.48Z" fill="#fff"/></svg>