<svg width="26" height="26" fill="none" xmlns="http://www.w3.org/2000/svg"><path d="M16.905 13.37a6.068 6.068 0 0 0 2.176-4.656A6.088 6.088 0 0 0 13 2.633a6.088 6.088 0 0 0-6.081 6.081c0 1.867.847 3.539 2.176 4.655-4.26.89-7.47 4.672-7.47 9.192a.812.812 0 1 0 1.625 0c0-4.282 3.483-7.766 7.766-7.766h3.968c4.283 0 7.766 3.484 7.766 7.766a.812.812 0 1 0 1.625 0c0-4.52-3.21-8.303-7.47-9.192ZM8.544 8.713A4.461 4.461 0 0 1 13 4.258c2.457 0 4.456 1.999 4.456 4.456A4.461 4.461 0 0 1 13 13.17c-2.457 0-4.456-1.999-4.456-4.456Z" fill="#000"/></svg>