<svg width="26" height="26" fill="none" xmlns="http://www.w3.org/2000/svg"><path d="M21.8 7.32h-2.326C19.048 4.124 16.31 1.648 13 1.648c-3.31 0-6.047 2.476-6.474 5.672H4.2c-.788 0-1.522.353-2.013.97a2.56 2.56 0 0 0-.496 2.178l2.717 11.878a2.561 2.561 0 0 0 2.51 2h12.165c1.208 0 2.24-.822 2.51-2l2.716-11.878a2.56 2.56 0 0 0-.496-2.179 2.562 2.562 0 0 0-2.013-.97ZM13 3.273c2.413 0 4.42 1.75 4.832 4.047H8.168A4.918 4.918 0 0 1 13 3.273Zm9.725 6.832L20.01 21.983a.945.945 0 0 1-.926.738H6.917a.945.945 0 0 1-.926-.738L3.275 10.105a.947.947 0 0 1 .925-1.16h2.262v2.082a.812.812 0 1 0 1.625 0V8.945h9.826v2.082a.812.812 0 1 0 1.625 0V8.945H21.8a.947.947 0 0 1 .925 1.16Z" fill="#000"/></svg>