<svg width="22" height="22" fill="none" xmlns="http://www.w3.org/2000/svg"><path d="M17.875 2.75h-2.063v-.688a.687.687 0 1 0-1.374 0v.688H7.561v-.688a.688.688 0 1 0-1.375 0v.688H4.126A1.375 1.375 0 0 0 2.75 4.125v13.75a1.375 1.375 0 0 0 1.375 1.375h13.75a1.375 1.375 0 0 0 1.375-1.375V4.125a1.375 1.375 0 0 0-1.375-1.375ZM6.187 4.125v.688a.688.688 0 1 0 1.375 0v-.688h6.875v.688a.687.687 0 1 0 1.376 0v-.688h2.062v2.75H4.125v-2.75h2.063Zm11.688 13.75H4.125V8.25h13.75v9.625Zm-5.844-6.531a1.031 1.031 0 1 1-2.063 0 1.031 1.031 0 0 1 2.063 0Zm3.781 0a1.031 1.031 0 1 1-2.062 0 1.031 1.031 0 0 1 2.063 0ZM8.25 14.78a1.031 1.031 0 1 1-2.063 0 1.031 1.031 0 0 1 2.063 0Zm3.781 0a1.031 1.031 0 1 1-2.063 0 1.031 1.031 0 0 1 2.063 0Zm3.781 0a1.032 1.032 0 1 1-2.063 0 1.032 1.032 0 0 1 2.063 0Z" fill="#000"/></svg>