<svg width="160" height="18" fill="none" xmlns="http://www.w3.org/2000/svg"><g clip-path="url(#a)" fill="#fff"><path d="M1.533 1.191C.53 1.983 0 3.094 0 4.413c0 2.43 2.247 3.662 4.423 4.853 1.912 1.056 3.728 2.047 3.728 3.774 0 1.12-1.137 2.302-3.234 2.302-1.516 0-3.014-.623-4.327-1.806l-.484-.44v2.63l.114.08c1.525.992 3.067 1.44 4.996 1.44 2.961 0 5.12-1.888 5.12-4.494 0-1.327-.52-2.446-1.577-3.414-.908-.831-2.062-1.423-3.181-1.998-1.745-.896-3.393-1.735-3.393-3.262 0-1.288 1.287-2.183 3.146-2.183 1.295 0 2.573.432 3.798 1.287l.458.32V1.143l-.132-.08C8.22.36 6.873-.007 5.55-.007c-1.639 0-3.03.415-4.027 1.19l.01.008ZM74.923 1.191c-.996.792-1.525 1.903-1.525 3.214 0 2.423 2.247 3.662 4.424 4.853 1.912 1.056 3.718 2.047 3.718 3.774 0 1.12-1.136 2.302-3.225 2.302-1.515 0-3.013-.623-4.326-1.806l-.485-.44v2.638l.115.08c1.524.992 3.066 1.44 4.996 1.44 2.96 0 5.11-1.888 5.11-4.494 0-1.327-.52-2.446-1.577-3.414-.907-.831-2.062-1.423-3.18-1.998-1.745-.896-3.402-1.735-3.402-3.262 0-1.288 1.295-2.183 3.146-2.183 1.295 0 2.573.432 3.798 1.287l.458.32V1.143l-.132-.08c-1.234-.703-2.582-1.07-3.904-1.07-1.639 0-3.031.415-4.027 1.19l.018.008ZM29.588.254v7.443h-9.904V.254h-2.309v16.733h2.309V9.544h9.904v7.443h2.308V.254h-2.308ZM39.781.254v16.733h2.309V.254H39.78ZM90.258.254v16.733h10.362V15.14h-8.045V9.552h7.516V7.705h-7.516V2.101h7.798V.254H90.257ZM149.641.254v16.733h10.362V15.14h-8.045V9.552h7.516V7.705h-7.516V2.101h7.798V.254H149.641ZM136.523.152h-1.648L127.43 16.99h2.388l2.141-5.03h7.657l2.317 5.038h2.362L136.523.152Zm-3.771 9.954 2.89-6.804 3.137 6.804h-6.027ZM122.019 3.477V1.278C120.204.551 118.283.04 116.671.04c-3.067 0-5.41.696-7.226 2.255-1.815 1.567-2.687 3.917-2.687 6.316 0 4.669 2.837 8.602 9.12 8.602 2.352 0 4.635-.535 6.133-1.439l.105-.064V7.714h-5.912v1.767h3.692v5.069c-1.146.551-2.626.831-4.089.76-3.383-.248-6.67-2.04-6.67-6.628 0-4.11 2.67-6.74 7.331-6.74 0 0 3.058.016 5.551 1.535ZM64.06.254v13.008L52.85.254h-2.203v16.733h2.142V3.604l11.464 13.383h1.938V.254h-2.141.009Z"/></g><defs><clipPath id="a"><path fill="#fff" d="M0 0h160v17.253H0z"/></clipPath></defs></svg>