<svg width="24" height="24" fill="none" xmlns="http://www.w3.org/2000/svg"><path d="M19.5 9.25h-6.75v-.843A3.006 3.006 0 0 0 15 5.5c0-2.625-2.479-4.304-2.584-4.374a.75.75 0 0 0-.832 0C11.479 1.196 9 2.876 9 5.5a3.006 3.006 0 0 0 2.25 2.907v.843H4.5a2.25 2.25 0 0 0-2.25 2.25v2.188c0 .818.264 1.614.75 2.272v3.79A2.25 2.25 0 0 0 5.25 22h13.5A2.25 2.25 0 0 0 21 19.75v-3.79c.486-.658.75-1.454.75-2.272V11.5a2.25 2.25 0 0 0-2.25-2.25Zm-9-3.75c0-1.272.938-2.293 1.5-2.792.563.5 1.5 1.52 1.5 2.792a1.5 1.5 0 1 1-3 0Zm9.75 8.188c0 1.242-.98 2.279-2.186 2.312a2.25 2.25 0 0 1-2.314-2.25.75.75 0 1 0-1.5 0 2.25 2.25 0 0 1-4.5 0 .75.75 0 1 0-1.5 0A2.25 2.25 0 0 1 5.936 16c-1.205-.033-2.186-1.07-2.186-2.312V11.5a.75.75 0 0 1 .75-.75h15a.75.75 0 0 1 .75.75v2.188Z" fill="#F22C2D"/></svg>