<svg width="24" height="24" fill="none" xmlns="http://www.w3.org/2000/svg"><path d="m23.956 10.08-1.424-3.56a1.416 1.416 0 0 0-1.322-.895h-3.719V4.61a.61.61 0 0 0-.61-.61H1.424A1.424 1.424 0 0 0 0 5.424v11.39a1.424 1.424 0 0 0 1.424 1.423h1.891a3.05 3.05 0 0 0 5.98 0h5.41a3.05 3.05 0 0 0 5.98 0h1.891A1.424 1.424 0 0 0 24 16.814v-6.509a.61.61 0 0 0-.044-.226Zm-6.465-3.233h3.72a.203.203 0 0 1 .19.129l1.088 2.719H17.49V6.847ZM1.221 5.424a.203.203 0 0 1 .203-.204H16.27v6.916H1.221V5.424Zm5.084 14.034a1.83 1.83 0 1 1 0-3.66 1.83 1.83 0 0 1 0 3.66Zm8.4-2.441h-5.41a3.05 3.05 0 0 0-5.98 0H1.424a.204.204 0 0 1-.204-.203v-3.458h15.051v1.574a3.06 3.06 0 0 0-1.566 2.087Zm2.99 2.44a1.83 1.83 0 1 1 0-3.66 1.83 1.83 0 0 1 0 3.66Zm5.085-2.643a.204.204 0 0 1-.204.203h-1.891a3.056 3.056 0 0 0-2.99-2.44c-.068 0-.136 0-.204.006v-3.668h5.289v5.899Z" fill="#000"/></svg>