<svg width="10" height="10" fill="none" xmlns="http://www.w3.org/2000/svg"><g clip-path="url(#a)"><path d="M9.73 4.35v-.001L5.65.269A.914.914 0 0 0 5 0a.915.915 0 0 0-.651.27L.27 4.347l-.004.004a.922.922 0 0 0 .641 1.57h.163v3.002c0 .594.483 1.077 1.077 1.077h1.596a.293.293 0 0 0 .293-.293V7.354c0-.272.22-.492.492-.492h.941c.271 0 .492.22.492.492v2.353c0 .162.13.293.293.293H7.85c.594 0 1.077-.483 1.077-1.077V5.92h.15A.922.922 0 0 0 9.73 4.35Z" fill="#fff"/></g><defs><clipPath id="a"><path fill="#fff" d="M0 0h10v10H0z"/></clipPath></defs></svg>