<svg width="75" height="74" viewBox="0 0 75 74" fill="none" xmlns="http://www.w3.org/2000/svg">
<g clip-path="url(#clip0_2934_3241)">
<path d="M37.4999 72.4784C57.3595 72.4784 73.4588 56.5937 73.4588 36.999C73.4588 17.4042 57.3595 1.51953 37.4999 1.51953C17.6404 1.51953 1.54102 17.4042 1.54102 36.999C1.54102 56.5937 17.6404 72.4784 37.4999 72.4784Z" fill="white" stroke="black" stroke-width="3" stroke-miterlimit="10"/>
<path d="M26.1988 34.7082V36.1172C26.1988 36.472 26.4967 36.766 26.8563 36.766C27.2159 36.766 27.5138 36.472 27.5138 36.1172V34.7082C27.5138 34.4446 27.7296 34.2317 27.9967 34.2317H30.5344C30.8015 34.2317 31.0172 34.4446 31.0172 34.7082V45.1695C31.0172 45.4331 30.8015 45.646 30.5344 45.646H27.9967C27.7296 45.646 27.5138 45.4331 27.5138 45.1695V39.1684C27.5138 38.8136 27.2159 38.5197 26.8563 38.5197C26.4967 38.5197 26.1988 38.8136 26.1988 39.1684V45.1695C26.1988 46.1427 27.0001 46.9435 27.9967 46.9435H30.5344C31.346 46.9435 32.0344 46.4062 32.2604 45.6764C33.4933 46.1123 34.7775 46.3353 36.0926 46.3353H39.0104C39.37 46.3353 39.6679 46.0413 39.6679 45.6865C39.6679 45.3317 39.37 45.0378 39.0104 45.0378H36.0926C34.7878 45.0378 33.5344 44.7945 32.3323 44.3079V36.0361C33.4316 35.8536 34.3871 34.9312 35.1063 34.1202C36.2261 32.8632 36.894 31.2109 36.9659 29.4775L37.0994 26.5682C37.0994 26.5682 37.0994 26.5479 37.0994 26.5378C37.0994 26.4161 37.2022 26.3249 37.3152 26.3249H37.346C37.7878 26.3249 38.1988 26.4972 38.507 26.8115C38.8152 27.1257 38.9796 27.5312 38.9693 27.9772L38.8666 32.5794C38.8666 32.5794 38.8666 32.5997 38.8666 32.6199C38.8974 33.5424 39.5857 34.2419 40.4693 34.2419H46.6029C47.0857 34.2419 47.4761 34.6271 47.4761 35.1035C47.4761 35.5799 47.0857 35.9652 46.6029 35.9652H45.6782C45.3186 35.9652 45.0207 36.2591 45.0207 36.6139C45.0207 36.9687 45.3186 37.2627 45.6782 37.2627H46.3357C46.8186 37.2627 47.209 37.6479 47.209 38.1243C47.209 38.6008 46.8186 38.986 46.3357 38.986C45.9556 38.986 45.3083 38.986 44.8871 38.986C44.5275 38.986 44.2296 39.2799 44.2296 39.6347C44.2296 39.9895 44.5275 40.2835 44.8871 40.2835H45.5446C46.0275 40.2835 46.4179 40.6687 46.4179 41.1452C46.4179 41.6216 46.0275 42.0068 45.5446 42.0068H44.1885C43.8289 42.0068 43.5309 42.3008 43.5309 42.6556C43.5309 43.0104 43.8289 43.3043 44.1885 43.3043H44.846C45.3289 43.3043 45.7193 43.6895 45.7193 44.166C45.7193 44.6424 45.3289 45.0276 44.846 45.0276H42.0823C41.7227 45.0276 41.4248 45.3216 41.4248 45.6764C41.4248 46.0312 41.7227 46.3252 42.0823 46.3252H44.846C46.0583 46.3252 47.0344 45.352 47.0344 44.166C47.0344 43.7301 46.9008 43.3246 46.6748 42.9901C47.3118 42.615 47.733 41.9257 47.733 41.1452C47.733 40.7295 47.6097 40.3342 47.4042 39.9997C48.072 39.6246 48.5241 38.9252 48.5241 38.1142C48.5241 37.5871 48.3289 37.1106 48.0207 36.7356C48.4933 36.3402 48.7912 35.7523 48.7912 35.0934C48.7912 33.8972 47.8049 32.9342 46.6029 32.9342H40.4693C40.2946 32.9342 40.1919 32.7517 40.1816 32.5794L40.2844 27.9975C40.3049 27.2068 40.007 26.4668 39.4419 25.8991C38.8871 25.3416 38.1371 25.0273 37.346 25.0273H37.3152C36.4727 25.0273 35.7946 25.6964 35.7844 26.5276L35.6508 29.4167C35.5892 30.8561 35.0344 32.2246 34.1097 33.2586C33.8323 33.5728 33.0515 34.4446 32.322 34.698C32.322 33.7249 31.5104 32.9342 30.5241 32.9342H27.9864C27.0001 32.9342 26.1885 33.7249 26.1885 34.7082H26.1988Z" fill="black"/>
<path d="M63.863 42.8279C63.6267 42.7366 63.3596 42.7265 63.1336 43.2942L62.1884 45.6763L62.0753 45.5243C61.6747 44.987 61.8185 44.024 62.476 42.8076C62.5685 42.6251 62.589 42.4528 62.5274 42.3007C62.476 42.1588 62.363 42.0574 62.2089 42.0068C62.0753 41.9561 61.6438 41.804 61.2945 42.5947C60.8219 43.6287 60.6164 44.612 60.6781 45.4432V45.4736C60.4212 46.8624 59.887 47.7646 59.1575 48.0079L58.5 49.6703C60.1747 49.7818 60.8527 48.0281 61.0993 46.9435L61.1404 46.7813L61.274 46.8928C61.3459 46.9637 61.4384 47.0347 61.5411 47.0955L61.613 47.1361L60.6986 49.4574C60.4726 50.0353 60.6781 50.1974 60.9144 50.2887C61.0685 50.3495 61.2021 50.3495 61.3151 50.2887C61.4384 50.2177 61.5514 50.0657 61.6541 49.8224L62.5274 47.6125L62.6096 47.6328C62.9795 47.7139 63.3288 47.4706 63.5137 47.0043C63.6986 46.538 63.6062 46.1224 63.2774 45.9399L63.1952 45.8994L63.226 45.8183L64.0685 43.6794C64.1712 43.4259 64.1918 43.2131 64.1301 43.0813C64.089 42.9799 63.9966 42.8988 63.8425 42.8481L63.863 42.8279Z" fill="black"/>
<path d="M58.2842 49.0408L61.0685 41.9753C61.1507 41.7827 61.1609 41.6205 61.1096 41.4989C61.0685 41.3975 60.9657 41.3164 60.8219 41.2658C60.6575 41.2049 60.5342 41.2049 60.4212 41.2658C60.3082 41.3266 60.2157 41.4482 60.1438 41.6307L59.0753 44.3474L58.5719 44.1548L58.613 44.0636L59.5685 41.651C59.7123 41.2759 59.4555 41.134 59.3425 41.0833C59.1678 41.0123 58.9109 41.0427 58.7877 41.3468L56.7534 46.4964C56.7226 46.5775 56.6815 46.6181 56.6301 46.6485C56.5788 46.6688 56.5171 46.6688 56.4555 46.6485L56.1986 46.5471L56.2397 46.4559L58.1199 41.7016C58.2534 41.357 58.274 41.063 58.1712 40.8197C58.0788 40.6068 57.8835 40.4345 57.6062 40.323H57.5753C56.9692 40.0797 56.4657 40.323 56.2089 40.9718L53.702 47.3175C53.5993 47.5912 53.6712 47.7737 53.9383 47.8751C54.1233 47.946 54.3699 47.9562 54.4931 47.6216L56.6301 42.2085C56.6815 42.0666 56.8356 42.026 56.9486 42.0666C57.0822 42.1173 57.1541 42.2592 57.1027 42.391L54.9041 47.9663L56.0548 48.4123C56.5171 48.5847 56.8562 48.5441 57.1541 47.794L57.9349 45.8071L58.4383 45.9997L58.3972 46.091L57.3596 48.7164C57.1746 49.1929 57.4109 49.3551 57.6164 49.4362C57.7603 49.4868 57.8835 49.497 57.9863 49.4564C58.1096 49.4058 58.2123 49.274 58.2842 49.0814V49.0408Z" fill="black"/>
<path d="M57.2978 55.1627L57.0615 54.889C56.2601 53.9463 56.1163 53.1556 56.5786 52.2534C56.7533 51.929 56.743 51.6452 56.5272 51.4019C56.219 51.0674 55.8389 51.0572 55.4793 51.3816C54.9553 51.8479 54.5341 52.8616 54.7704 54.0679V54.1389L54.719 54.1794C54.3286 54.4024 53.7224 54.4937 53.0546 53.6929L51.832 54.7775C52.9005 56.0142 54.0307 56.2271 55.1813 55.4161L55.2635 55.3553L55.3252 55.4465C55.4587 55.6493 55.6026 55.8419 55.7772 56.0345L56.0033 56.2879C56.3012 56.6224 56.7533 56.6224 57.1334 56.3082C57.4519 56.0345 57.6368 55.5783 57.2978 55.1931V55.1627Z" fill="black"/>
<path d="M54.083 56.5937C53.9494 56.4416 53.7748 56.3605 53.6001 56.3504C53.4152 56.3504 53.2405 56.4213 53.0762 56.5734L52.4803 57.1005L52.4084 57.0194L50.8673 55.3164L49.583 56.4517L52.3467 59.503C52.5111 59.6854 52.7166 59.7868 52.922 59.797C52.9323 59.797 52.9529 59.797 52.9631 59.797C53.1686 59.797 53.3741 59.7159 53.559 59.5537C53.744 59.3915 53.857 59.1786 53.8673 58.9556C53.8775 58.7427 53.7953 58.54 53.631 58.3575L53.4049 58.1142L54.0008 57.5871C54.1652 57.435 54.2679 57.2627 54.2782 57.0802C54.2782 56.9079 54.2166 56.7356 54.083 56.5835V56.5937Z" fill="black"/>
<path d="M49.161 55.6904C49.161 55.6904 49.1816 55.6904 49.1918 55.6904C49.4384 55.6904 49.7261 55.5282 50.1268 55.1734L54.5857 51.2403C54.9247 50.9362 54.9658 50.5713 54.6987 50.2671C54.4213 49.963 54.0514 49.963 53.7124 50.2671L49.8185 53.7036C49.7261 53.7948 49.6336 53.7948 49.572 53.7948C49.5103 53.7948 49.4281 53.7644 49.3459 53.6732L48.2775 52.4973L46.9727 53.6428L48.2261 55.0214C48.6473 55.4877 48.9144 55.6702 49.1713 55.6803L49.161 55.6904Z" fill="black"/>
<path d="M44.9572 63.1608L46.9606 62.6337C47.988 62.36 48.4812 61.5592 48.2243 60.586V60.5556C47.9572 59.5825 47.125 59.1162 46.0873 59.3899L45.9332 59.4304L45.7277 58.66L47.1147 58.2951C47.7209 58.1329 47.649 57.6463 47.6079 57.5044C47.5051 57.1192 47.2072 56.9671 46.786 57.0786L42.1935 58.2748C41.9777 58.3356 41.8236 58.4269 41.7414 58.5688C41.6592 58.7006 41.649 58.8628 41.7003 59.0452C41.7517 59.2277 41.8545 59.3696 41.988 59.4507C42.1318 59.5318 42.3168 59.5521 42.5223 59.4912L44.1558 59.0655L44.3613 59.8359L44.0839 59.9069C43.5599 60.0386 43.1798 60.3123 42.964 60.6975C42.7688 61.0523 42.7277 61.4882 42.851 61.9545V61.9849C43.1284 62.9784 43.9298 63.4244 44.9572 63.1507V63.1608ZM44.4538 61.1132C44.536 60.9814 44.6695 60.8902 44.8647 60.8395L45.8819 60.5759C46.0771 60.5252 46.2414 60.5354 46.375 60.6063C46.5086 60.6773 46.6113 60.7989 46.6524 60.9814V61.0118C46.7038 61.174 46.6832 61.326 46.6113 61.4578C46.5291 61.5896 46.3853 61.691 46.1901 61.7417L45.1729 62.0052C45.101 62.0255 45.0291 62.0356 44.9675 62.0356C44.8647 62.0356 44.7723 62.0154 44.6901 61.9647C44.5565 61.8937 44.464 61.7619 44.4229 61.5896V61.5592C44.3716 61.3869 44.3819 61.2449 44.4538 61.1132Z" fill="black"/>
<path d="M40.6424 63.6683C40.7041 63.9116 40.8479 64.0941 41.0329 64.1954C41.2075 64.2867 41.4335 64.307 41.6596 64.2461C41.8856 64.1853 42.0705 64.0637 42.1835 63.8913C42.3068 63.7089 42.3274 63.4859 42.2657 63.2426L40.776 57.6875L39.1527 58.1133L39.8616 60.7387L39.4712 60.8401C38.8959 60.9922 38.9678 61.499 39.0192 61.7119C39.0705 61.9045 39.163 62.0565 39.2863 62.1579C39.4301 62.2796 39.6253 62.31 39.8513 62.2491L40.2418 62.1478L40.6527 63.6683H40.6424Z" fill="black"/>
<path d="M38.4957 56.1964C38.3929 56.3687 38.4135 56.5512 38.4546 56.683C38.4854 56.8046 38.5676 56.9769 38.732 57.0783C38.8758 57.1594 39.0607 57.1695 39.2765 57.1189L44.2799 55.8112C44.4135 55.7706 44.5573 55.7706 44.619 55.9937L44.7114 56.3383C44.7731 56.5613 44.9066 56.7235 45.0916 56.8148C45.2662 56.8958 45.5025 56.9161 45.7388 56.8452C46.0162 56.7742 46.232 56.6221 46.345 56.4295C46.4374 56.2674 46.458 56.0849 46.4066 55.8822L46.2525 55.3246C46.119 54.8178 45.9648 54.5542 45.7491 54.4123C45.6361 54.3413 45.4922 54.3008 45.3073 54.3008C45.1326 54.3008 44.9374 54.3312 44.6909 54.392L38.958 55.8923C38.7422 55.9531 38.5984 56.0443 38.5059 56.1863L38.4957 56.1964Z" fill="black"/>
<path d="M37.6949 56.957C37.736 56.7745 37.7154 56.6123 37.6332 56.4805C37.5408 56.3285 37.3764 56.2271 37.1503 56.1764L29.8764 54.6559C29.4449 54.5646 29.1469 54.7471 29.0545 55.1526C29.0236 55.3046 28.962 55.8115 29.599 55.9433L30.7188 56.1764L30.3901 57.7172L29.4962 57.5348C29.0442 57.4435 28.8079 57.7375 28.7462 58.0213C28.6846 58.3153 28.7668 58.6904 29.2291 58.7918L34.3661 59.8663C34.5099 59.8967 34.6127 59.9575 34.664 60.0386C34.7154 60.1197 34.7257 60.2109 34.7051 60.3326C34.6538 60.5657 34.4688 60.6874 34.2017 60.6265L28.6949 59.4709L28.2839 61.3665C28.1914 61.8126 28.2223 62.1572 28.3866 62.4208C28.5818 62.7249 28.962 62.9276 29.5476 63.0493L35.0442 64.1948C35.2702 64.2455 35.4346 64.1644 35.5373 64.0934C35.6709 63.992 35.7634 63.8501 35.8045 63.6879C35.8764 63.3737 35.7223 62.9986 35.3216 62.9074L30.4003 61.8734C30.1743 61.8227 30.0716 61.6707 30.1229 61.4375L30.2051 61.0422L34.438 61.9241C35.5784 62.1674 36.3284 61.7518 36.5339 60.7786L36.575 60.6063C36.7599 59.7446 36.3901 59.0959 35.5271 58.8019L35.4449 58.7715L35.7839 57.2104L36.9038 57.4435C37.1401 57.4942 37.325 57.4638 37.4688 57.3624C37.5921 57.2712 37.6846 57.1192 37.7257 56.9468L37.6949 56.957ZM33.7908 58.4268L32.0236 58.0518L32.3524 56.5109L34.1195 56.886L33.7908 58.4268Z" fill="black"/>
<path d="M59.1165 25.057C58.6131 25.3611 58.0172 25.2293 57.709 24.7326C57.3905 24.2257 57.5446 23.6378 58.048 23.3337C58.5515 23.0296 59.1474 23.1614 59.4659 23.6682C59.7741 24.1649 59.62 24.7529 59.1268 25.057H59.1165Z" fill="black"/>
<path d="M14.4864 48.4646C14.2193 47.9375 14.4145 47.3597 14.9384 47.0961C15.4624 46.8326 16.048 47.015 16.3254 47.5422C16.5925 48.0591 16.3871 48.6369 15.8631 48.9005C15.3391 49.1641 14.7535 48.9816 14.4864 48.4646Z" fill="black"/>
<path d="M18.2252 33.5959C18.482 33.4844 18.6772 33.2614 18.8108 32.9269L21.3485 26.6014C21.3999 26.4595 21.4101 26.348 21.369 26.2568C21.3279 26.1655 21.2457 26.0946 21.1225 26.0439C20.9375 25.9729 20.7012 25.9628 20.5574 26.2872L18.3896 31.6902C18.369 31.751 18.3177 31.8017 18.256 31.822C18.1944 31.8524 18.1225 31.8524 18.0608 31.822C17.9889 31.7916 17.9375 31.751 17.917 31.6902C17.8964 31.6294 17.8964 31.5685 17.917 31.5077L20.1464 25.9527L19.006 25.5066C18.554 25.3242 18.2046 25.3647 17.9067 26.1148L17.1053 28.1017L16.6122 27.9091L17.7012 25.2025C17.7731 25.0201 17.7937 24.868 17.7526 24.7464C17.7115 24.6348 17.619 24.5436 17.4546 24.4828C17.3108 24.4321 17.1875 24.422 17.0848 24.4625C16.9615 24.5132 16.8588 24.645 16.7868 24.8376L13.9512 31.8828C13.8793 32.0653 13.8588 32.2173 13.8999 32.339C13.9409 32.4505 14.0334 32.5417 14.1978 32.6025C14.393 32.6735 14.6807 32.7242 14.8759 32.2477L15.9649 29.5412L16.4581 29.7338L15.4512 32.2376C15.3999 32.3694 15.3896 32.491 15.4307 32.5924C15.482 32.714 15.5951 32.7749 15.6772 32.8053C15.7903 32.8458 15.9033 32.8458 15.9957 32.8053C16.0985 32.7647 16.1807 32.6735 16.232 32.5417L18.2971 27.4022C18.3279 27.3212 18.369 27.2806 18.4204 27.2502C18.4409 27.2401 18.4718 27.2299 18.5026 27.2299C18.5334 27.2299 18.5642 27.2299 18.6053 27.2502L18.8622 27.3516L16.9204 32.197C16.6533 32.8559 16.8382 33.3425 17.4238 33.5757H17.4444C17.7218 33.6973 17.9889 33.6973 18.2252 33.6061V33.5959Z" fill="black"/>
<path d="M12.8109 31.84C13.191 31.982 13.489 31.7894 13.7253 31.2622C14.1979 30.2283 14.4136 29.245 14.3622 28.4137V28.3833C14.6191 26.9946 15.1636 26.1025 15.8931 25.8592L16.5609 24.1967C16.4992 24.1967 16.4479 24.1967 16.3862 24.1967C14.8246 24.1967 14.1876 25.8693 13.941 26.9135L13.8999 27.0757L13.7663 26.9641C13.6842 26.8932 13.602 26.8222 13.4992 26.7614L13.4273 26.7209L14.3622 24.3995C14.5883 23.8318 14.3828 23.6595 14.1568 23.5683C13.9307 23.477 13.6431 23.4567 13.417 24.0346L12.5335 26.2343L12.4513 26.214C12.0814 26.1228 11.7321 26.3762 11.5472 26.8425C11.3622 27.3088 11.4444 27.7244 11.7732 27.9069L11.8554 27.9474L10.9616 30.1674C10.8588 30.4209 10.8383 30.6236 10.8999 30.7655C10.941 30.8669 11.0335 30.948 11.1876 31.0088C11.3314 31.0595 11.4444 31.0696 11.5472 31.0291C11.691 30.9683 11.8143 30.8061 11.917 30.5425L12.8725 28.1603L12.9855 28.3124C13.3862 28.8496 13.2321 29.8126 12.5746 31.0291C12.4718 31.2115 12.4513 31.3839 12.5129 31.5359C12.5643 31.6778 12.6773 31.7792 12.8314 31.84H12.8109Z" fill="black"/>
<path d="M22.0469 20.2235L23.2798 19.149C22.2216 17.9123 21.0914 17.6892 19.9305 18.5002L19.838 18.561L19.7764 18.4698C19.6428 18.2671 19.499 18.0745 19.3243 17.8818L19.0983 17.6284C18.9442 17.4561 18.749 17.375 18.5435 17.375C18.3483 17.375 18.1531 17.4561 17.9681 17.6082C17.5777 17.9427 17.5058 18.3786 17.7935 18.7232L18.0298 18.9969C18.8312 19.9397 18.9647 20.7303 18.4921 21.6427C18.3072 21.9569 18.3277 22.2509 18.5435 22.4942C18.8414 22.8287 19.2318 22.8388 19.5914 22.5246C20.1257 22.0583 20.5469 21.0547 20.3209 19.8484V19.7775L20.3723 19.7369C20.7729 19.5139 21.3688 19.4328 22.0366 20.2336L22.0469 20.2235Z" fill="black"/>
<path d="M21.0298 17.3157C21.1633 17.4677 21.3277 17.5488 21.5127 17.559C21.5127 17.559 21.5229 17.559 21.5332 17.559C21.7079 17.559 21.8825 17.488 22.0469 17.3461L22.6428 16.8291L24.2455 18.6132L25.5401 17.488L22.7969 14.4266C22.4065 13.9907 21.9031 14.082 21.5846 14.3557C21.3996 14.5179 21.2866 14.7307 21.2661 14.9436C21.2558 15.1565 21.338 15.3592 21.5024 15.5417L21.7181 15.7951L21.1222 16.3121C20.9476 16.4642 20.8551 16.6365 20.8448 16.819C20.8346 16.9913 20.8962 17.1636 21.0401 17.3157H21.0298Z" fill="black"/>
<path d="M21.3789 23.6296L25.2932 20.2134C25.3857 20.1323 25.4885 20.112 25.5398 20.1222C25.622 20.1222 25.7042 20.1729 25.7658 20.2438L26.8343 21.4299L28.1391 20.2844L26.896 18.8956C26.4953 18.4394 26.2385 18.257 25.9816 18.2266C25.9611 18.2266 25.9405 18.2266 25.92 18.2266C25.6734 18.2266 25.3857 18.3888 24.985 18.7435L20.5056 22.6564C20.3309 22.8085 20.2282 22.9808 20.2179 23.1531C20.2076 23.3153 20.2693 23.4775 20.3926 23.6296C20.67 23.9337 21.0398 23.9337 21.3789 23.6296Z" fill="black"/>
<path d="M28.8683 18.6128C29.0019 19.1095 29.156 19.3934 29.3717 19.5251C29.5977 19.6671 29.9265 19.6671 30.4299 19.5454L36.1731 18.0755C36.3888 18.0249 36.5429 17.9235 36.6251 17.7816C36.7279 17.6092 36.7073 17.4268 36.6765 17.295C36.6457 17.1734 36.5738 17.001 36.3991 16.8997C36.2553 16.8186 36.0703 16.8084 35.8546 16.8591L30.8512 18.1364C30.7792 18.1566 30.6971 18.1668 30.6251 18.1364C30.5532 18.0958 30.5327 18.0147 30.5121 17.9539L30.4197 17.6194C30.3272 17.2646 30.0498 17.0618 29.6799 17.0618C29.5875 17.0618 29.495 17.072 29.3923 17.1024C28.9916 17.2038 28.5806 17.518 28.7142 18.0553L28.858 18.6229L28.8683 18.6128Z" fill="black"/>
<path d="M27.7896 16.8176C27.9334 16.8987 28.1183 16.9089 28.3341 16.8582L32.9266 15.6823C33.1423 15.6215 33.3067 15.5201 33.3889 15.3782C33.4608 15.2464 33.4814 15.0842 33.43 14.9119C33.3786 14.7294 33.2759 14.5875 33.1423 14.5064C32.9985 14.4253 32.8135 14.405 32.6081 14.4659L30.9745 14.8815L30.769 14.1111L31.0464 14.0401C31.5704 13.9083 31.9608 13.6346 32.1766 13.2596C32.382 12.9048 32.4231 12.4689 32.2998 12.0026V11.9722C32.0327 10.9889 31.2313 10.5327 30.204 10.7963L28.2005 11.3031C27.6766 11.4349 27.2759 11.7086 27.0601 12.0938C26.8546 12.4486 26.8033 12.8845 26.9266 13.3508V13.3812C27.0498 13.8475 27.3067 14.2023 27.6663 14.4152C28.0464 14.6382 28.5293 14.6889 29.0533 14.5571L29.2074 14.5165L29.4129 15.287L28.0259 15.6418C27.8101 15.6924 27.6663 15.7938 27.5841 15.9357C27.5019 16.0675 27.4916 16.25 27.5327 16.4324C27.5841 16.6149 27.6766 16.7467 27.8101 16.8278L27.7896 16.8176ZM29.2485 13.3711C29.1663 13.3913 29.0944 13.4015 29.0224 13.4015C28.745 13.4015 28.5498 13.2494 28.4779 12.9757V12.9453C28.4266 12.7831 28.4471 12.6311 28.519 12.5094C28.6012 12.3776 28.745 12.2763 28.9403 12.2256L29.9574 11.962C30.1423 11.9113 30.317 11.9316 30.4505 12.0026C30.5738 12.0735 30.6663 12.2053 30.7074 12.3675V12.3878C30.8101 12.7426 30.6355 13.0061 30.2553 13.1075L29.2382 13.3711H29.2485Z" fill="black"/>
<path d="M32.8855 10.7246L34.3444 16.2898L35.9677 15.8742L35.2794 13.2487L35.6698 13.1474C35.865 13.0967 35.9985 13.0055 36.0807 12.8737C36.204 12.6709 36.1629 12.4074 36.1321 12.2756C36.1013 12.1438 36.0088 11.9005 35.7931 11.7789C35.6595 11.6978 35.4951 11.6876 35.2999 11.7383L34.9095 11.8397L34.5088 10.3192C34.3958 9.88327 34.067 9.71094 33.7383 9.71094C33.6561 9.71094 33.5739 9.72107 33.4917 9.74135C33.0807 9.84272 32.7417 10.1975 32.8753 10.7348L32.8855 10.7246Z" fill="black"/>
<path d="M46.7766 11.637C46.5814 11.3329 46.2116 11.1302 45.6259 10.9984L40.1396 9.81235C39.9753 9.78194 39.8212 9.81235 39.6773 9.89344C39.5335 9.98468 39.4205 10.1469 39.3794 10.3192C39.3383 10.5017 39.3794 10.6943 39.4616 10.8362C39.554 10.968 39.6876 11.0592 39.852 11.0997L44.7732 12.1641C44.8862 12.1844 44.9684 12.2351 45.0198 12.3162C45.0712 12.3871 45.0814 12.4885 45.0506 12.6L44.9684 12.9954L40.7458 12.083C39.6054 11.8397 38.8554 12.2351 38.6396 13.2184L38.5986 13.3907C38.4033 14.2523 38.7732 14.9011 39.6362 15.2052L39.7184 15.2356L39.3794 16.7866L38.2595 16.5433C38.1876 16.523 38.1157 16.523 38.054 16.523C37.9307 16.523 37.8177 16.5534 37.715 16.6143C37.5814 16.7055 37.4787 16.8576 37.4376 17.0502C37.4068 17.1819 37.3965 17.3745 37.5095 17.5469C37.602 17.6888 37.7664 17.7902 37.9821 17.8307L45.2561 19.4019C45.4821 19.4526 45.6568 19.4222 45.8006 19.3411C45.9753 19.2296 46.0472 19.0471 46.078 18.9154C46.1088 18.7633 46.1705 18.2565 45.5335 18.1247L44.4136 17.8814L44.7527 16.3406L45.6465 16.5332C45.852 16.5737 46.0266 16.5433 46.1602 16.4419C46.2732 16.3507 46.3657 16.2088 46.3965 16.0466C46.4581 15.7526 46.376 15.3776 45.9239 15.2762L40.7972 14.1713C40.4479 14.1003 40.417 13.8773 40.4581 13.705C40.4787 13.5934 40.5403 13.5123 40.6225 13.4617C40.715 13.4008 40.828 13.3907 40.9718 13.4211L46.4684 14.6071L46.8896 12.7115C46.9924 12.2655 46.9616 11.9208 46.7972 11.6573L46.7766 11.637ZM41.3417 15.5904L43.1088 15.9756L42.7698 17.5165L41.0027 17.1313L41.3417 15.5904Z" fill="black"/>
</g>
<defs>
<clipPath id="clip0_2934_3241">
<rect width="75" height="74" fill="white"/>
</clipPath>
</defs>
</svg>
