<svg width="18" height="18" fill="none" xmlns="http://www.w3.org/2000/svg"><path d="M9.938 13.063a.937.937 0 1 1-1.875 0 .937.937 0 0 1 1.874 0ZM9 4.624c-1.723 0-3.125 1.262-3.125 2.813v.312a.625.625 0 0 0 1.25 0v-.313c0-.859.841-1.562 1.875-1.562s1.875.703 1.875 1.563C10.875 8.296 10.034 9 9 9a.625.625 0 0 0-.625.625v.625a.625.625 0 1 0 1.25 0v-.056c1.425-.262 2.5-1.399 2.5-2.757 0-1.55-1.402-2.812-3.125-2.812ZM17.125 9A8.125 8.125 0 1 1 9 .875 8.133 8.133 0 0 1 17.125 9Zm-1.25 0A6.875 6.875 0 1 0 9 15.875 6.883 6.883 0 0 0 15.875 9Z" fill="#666"/></svg>