<svg width="50" height="50" fill="none" xmlns="http://www.w3.org/2000/svg"><g clip-path="url(#a)"><path d="M48.319 19.957a16.656 16.656 0 0 1-3.266-7.881c-.387-3.558-3.573-6.742-7.13-7.131a16.67 16.67 0 0 1-7.881-3.264c-2.79-2.242-7.294-2.24-10.085 0a16.654 16.654 0 0 1-7.881 3.265c-3.558.389-6.742 3.573-7.131 7.13a16.662 16.662 0 0 1-3.264 7.882c-2.242 2.79-2.24 7.295 0 10.085a16.655 16.655 0 0 1 3.266 7.88c.388 3.56 3.573 6.743 7.13 7.132a16.66 16.66 0 0 1 7.882 3.264c2.79 2.242 7.294 2.241 10.085 0a16.656 16.656 0 0 1 7.88-3.266c3.558-.387 6.743-3.573 7.131-7.13a16.668 16.668 0 0 1 3.264-7.881c2.242-2.79 2.241-7.294 0-10.085Z" fill="#5E6EF9"/></g><defs><clipPath id="a"><path fill="#fff" d="M0 0h50v50H0z"/></clipPath></defs></svg>