<svg width="26" height="26" viewBox="0 0 26 26" fill="none" xmlns="http://www.w3.org/2000/svg">
<path d="M21.725 21.3911L5.47499 3.51609C5.40364 3.43566 5.31703 3.37019 5.22019 3.32348C5.12335 3.27677 5.0182 3.24974 4.91084 3.24396C4.80347 3.23819 4.69603 3.25378 4.59474 3.28983C4.49344 3.32589 4.40031 3.38169 4.32074 3.454C4.24117 3.52631 4.17675 3.61369 4.1312 3.71109C4.08565 3.80848 4.05988 3.91395 4.0554 4.02137C4.05091 4.1288 4.06779 4.23605 4.10505 4.3369C4.14232 4.43775 4.19923 4.53021 4.27249 4.60891L5.68624 6.16383V21.9375C5.68624 22.584 5.94305 23.204 6.40017 23.6611C6.85729 24.1182 7.47727 24.375 8.12374 24.375H17.8737C18.4693 24.3749 19.0442 24.1567 19.4899 23.7617C19.9356 23.3667 20.2212 22.8222 20.293 22.231L20.5225 22.4839C20.5938 22.5643 20.6804 22.6298 20.7773 22.6765C20.8741 22.7232 20.9793 22.7503 21.0866 22.756C21.194 22.7618 21.3014 22.7462 21.4027 22.7102C21.504 22.6741 21.5972 22.6183 21.6767 22.546C21.7563 22.4737 21.8207 22.3863 21.8663 22.2889C21.9118 22.1915 21.9376 22.0861 21.9421 21.9786C21.9466 21.8712 21.9297 21.764 21.8924 21.6631C21.8552 21.5622 21.7982 21.4698 21.725 21.3911ZM18.6862 21.9375C18.6862 22.153 18.6006 22.3597 18.4483 22.512C18.2959 22.6644 18.0892 22.75 17.8737 22.75H8.12374C7.90825 22.75 7.70159 22.6644 7.54922 22.512C7.39684 22.3597 7.31124 22.153 7.31124 21.9375V7.95133L18.6862 20.4638V21.9375ZM6.97608 2.4375C6.97608 2.22201 7.06169 2.01535 7.21406 1.86298C7.36643 1.7106 7.57309 1.625 7.78858 1.625H17.8737C18.5202 1.625 19.1402 1.88181 19.5973 2.33893C20.0544 2.79605 20.3112 3.41603 20.3112 4.0625V15.3187C20.3112 15.5342 20.2256 15.7408 20.0733 15.8932C19.9209 16.0456 19.7142 16.1312 19.4987 16.1312C19.2832 16.1312 19.0766 16.0456 18.9242 15.8932C18.7718 15.7408 18.6862 15.5342 18.6862 15.3187V4.0625C18.6862 3.84701 18.6006 3.64035 18.4483 3.48798C18.2959 3.3356 18.0892 3.25 17.8737 3.25H7.78858C7.57309 3.25 7.36643 3.1644 7.21406 3.01202C7.06169 2.85965 6.97608 2.65299 6.97608 2.4375Z" fill="#3B6CEC"/>
</svg>
