<svg width="28" height="28" fill="none" xmlns="http://www.w3.org/2000/svg"><path d="M23.625 9.095h-4.513c.232-.145.451-.31.656-.49a3.015 3.015 0 0 0 1.009-2.187 3.35 3.35 0 0 0-3.441-3.448 3.014 3.014 0 0 0-2.188 1.009A6.246 6.246 0 0 0 14 6.006a6.245 6.245 0 0 0-1.146-2.026 3.014 3.014 0 0 0-2.19-1.01A3.35 3.35 0 0 0 7.22 6.417a3.014 3.014 0 0 0 1.008 2.187c.205.181.425.345.656.49H4.375a1.531 1.531 0 0 0-1.531 1.532v3.5a1.531 1.531 0 0 0 1.531 1.532h.219v7.218a1.531 1.531 0 0 0 1.531 1.532h15.75a1.531 1.531 0 0 0 1.531-1.532v-7.218h.219a1.531 1.531 0 0 0 1.531-1.532v-3.5a1.531 1.531 0 0 0-1.531-1.53ZM14.85 7.892c.246-1.326.688-2.379 1.278-3.046a1.716 1.716 0 0 1 1.247-.563h.06a2.034 2.034 0 0 1 2.034 2.093 1.716 1.716 0 0 1-.567 1.247c-1.172 1.035-3.16 1.344-4.209 1.434.028-.316.073-.719.157-1.165ZM9.127 4.879c.382-.38.899-.595 1.438-.596h.06a1.715 1.715 0 0 1 1.247.566c1.034 1.173 1.344 3.161 1.434 4.209a12.145 12.145 0 0 1-1.161-.156c-1.326-.244-2.379-.688-3.046-1.28a1.71 1.71 0 0 1-.568-1.246 2.04 2.04 0 0 1 .596-1.497Zm-4.97 9.247v-3.5a.219.219 0 0 1 .218-.218h8.969v3.937H4.375a.219.219 0 0 1-.219-.219Zm1.75 8.75v-7.218h7.437v7.437H6.125a.219.219 0 0 1-.219-.219Zm16.187 0a.22.22 0 0 1-.219.22h-7.219v-7.438h7.438v7.218Zm1.75-8.75a.22.22 0 0 1-.219.22h-8.969v-3.938h8.969a.219.219 0 0 1 .219.218v3.5Z" fill="#000"/></svg>