<svg width="26" height="26" fill="none" xmlns="http://www.w3.org/2000/svg"><path d="M5.476 3.515a.812.812 0 1 0-1.202 1.093l1.954 2.15C2.539 9.022.953 12.512.883 12.67a.813.813 0 0 0 0 .66c.035.08.895 1.988 2.808 3.9 2.548 2.548 5.766 3.894 9.309 3.894a12.91 12.91 0 0 0 5.288-1.1l2.235 2.46a.814.814 0 1 0 1.202-1.094L5.476 3.515Zm4.807 7.703 4.232 4.657a3.25 3.25 0 0 1-4.232-4.657ZM13 19.499c-3.126 0-5.857-1.136-8.118-3.377A13.523 13.523 0 0 1 2.54 13c.476-.892 1.997-3.39 4.809-5.015L9.176 9.99a4.875 4.875 0 0 0 6.466 7.11l1.496 1.645c-1.32.506-2.724.762-4.138.754Zm.61-9.692a.813.813 0 1 1 .304-1.596 4.891 4.891 0 0 1 3.938 4.33.812.812 0 0 1-.734.885.692.692 0 0 1-.076 0 .813.813 0 0 1-.812-.737 3.26 3.26 0 0 0-2.62-2.882Zm11.504 3.524c-.042.095-1.071 2.373-3.388 4.448a.811.811 0 0 1-1.362-.648.813.813 0 0 1 .279-.563A13.486 13.486 0 0 0 23.466 13a13.523 13.523 0 0 0-2.348-3.125C18.858 7.636 16.126 6.5 13 6.5c-.659 0-1.316.053-1.966.16a.812.812 0 1 1-.268-1.603A13.61 13.61 0 0 1 13 4.874c3.543 0 6.761 1.347 9.31 3.895 1.912 1.913 2.772 3.821 2.807 3.901a.813.813 0 0 1 0 .66h-.003Z" fill="#000"/></svg>