<svg width="18" height="18" fill="none" xmlns="http://www.w3.org/2000/svg"><path d="M2.625 10.176c0 .31.252.562.563.562h3.561a.562.562 0 1 0 0-1.125H3.188a.562.562 0 0 0-.563.563ZM5.538 7.188H1.977a.562.562 0 1 0 0 1.125h3.561a.562.562 0 1 0 0-1.126ZM1.977 13.164h3.561a.562.562 0 1 0 0-1.125H1.977a.562.562 0 1 0 0 1.125Z" fill="#fff"/><path d="M9.891 16.875c3.696 0 6.7-3.004 6.7-6.7 0-1.642-.597-3.15-1.587-4.32l.861-.854a.567.567 0 0 0 0-.8.56.56 0 0 0-.793 0l-.86.862a6.652 6.652 0 0 0-3.753-1.559V2.25h.89c.309 0 .562-.253.562-.563a.564.564 0 0 0-.563-.562H8.44a.564.564 0 0 0-.562.563c0 .309.253.562.562.562h.894v1.26A6.678 6.678 0 0 0 4.61 6.064h.929c.933 0 1.687.753 1.687 1.687 0 .276-.073.535-.191.765a1.687 1.687 0 0 1 1.406 1.66c0 .832-.613 1.524-1.406 1.659.118.23.191.49.191.765 0 .934-.754 1.688-1.687 1.688h-.929a6.683 6.683 0 0 0 5.282 2.587Zm-.557-9.253a.56.56 0 0 1 .563-.563c.31 0 .562.253.562.563V9.05c0 .309.248.562.563.562h1.316c.31 0 .563.253.563.563 0 .309-.253.562-.563.562h-1.316c-.934 0-1.688-.76-1.688-1.687V7.62Z" fill="#fff"/></svg>