<svg width="18" height="18" fill="none" xmlns="http://www.w3.org/2000/svg"><g clip-path="url(#a)" fill="#fff"><path d="M9 17.186h.5v-.015c4.282-.26 7.686-3.825 7.686-8.171C17.186 4.486 13.514.814 9 .814 4.486.814.814 4.486.814 9c0 4.514 3.672 8.186 8.186 8.186ZM.5 9C.5 4.314 4.314.5 9 .5s8.5 3.814 8.5 8.5c0 4.687-3.814 8.5-8.5 8.5S.5 13.687.5 9Z" stroke="#fff"/><path d="M12.067 9.001H9.22V5.06a.657.657 0 0 0-1.314 0v4.599c0 .363.295.657.657.657h3.504a.657.657 0 1 0 0-1.314Z"/></g><defs><clipPath id="a"><path fill="#fff" d="M0 0h18v18H0z"/></clipPath></defs></svg>