<svg xmlns="http://www.w3.org/2000/svg" width="24" height="24" fill="none"><path fill="#F22C2D" d="M20.25 7.798h-3.868c.198-.125.386-.265.562-.42a2.584 2.584 0 0 0 .865-1.875 2.871 2.871 0 0 0-2.95-2.955 2.584 2.584 0 0 0-1.875.864A5.353 5.353 0 0 0 12 5.151a5.353 5.353 0 0 0-.982-1.738 2.585 2.585 0 0 0-1.877-.865 2.871 2.871 0 0 0-2.954 2.954 2.584 2.584 0 0 0 .865 1.875c.176.155.364.296.562.42H3.75a1.312 1.312 0 0 0-1.313 1.314v3a1.312 1.312 0 0 0 1.313 1.312h.188v6.188a1.312 1.312 0 0 0 1.312 1.312h13.5a1.312 1.312 0 0 0 1.313-1.312v-6.188h.187a1.312 1.312 0 0 0 1.313-1.312v-3a1.313 1.313 0 0 0-1.313-1.313Zm-7.522-1.031c.211-1.136.59-2.04 1.096-2.611a1.47 1.47 0 0 1 1.07-.483h.05a1.744 1.744 0 0 1 1.743 1.794 1.47 1.47 0 0 1-.485 1.07c-1.005.886-2.71 1.151-3.608 1.228.024-.27.062-.616.134-.998ZM7.823 4.184c.328-.326.77-.51 1.232-.51h.052a1.47 1.47 0 0 1 1.069.485c.886 1.005 1.152 2.71 1.229 3.607a10.4 10.4 0 0 1-.995-.134c-1.136-.209-2.04-.59-2.61-1.097a1.466 1.466 0 0 1-.487-1.068 1.748 1.748 0 0 1 .51-1.283Zm-4.26 7.927v-3a.187.187 0 0 1 .187-.188h7.688v3.375H3.75a.188.188 0 0 1-.188-.187Zm1.5 7.5v-6.188h6.375v6.375H5.25a.188.188 0 0 1-.188-.187Zm13.875 0a.188.188 0 0 1-.188.187h-6.188v-6.375h6.376v6.188Zm1.5-7.5a.188.188 0 0 1-.188.187h-7.688V8.923h7.688a.188.188 0 0 1 .188.188v3Z"/></svg>