<svg width="26" height="26" fill="none" xmlns="http://www.w3.org/2000/svg"><path d="M25.117 12.67c-.035-.08-.895-1.988-2.808-3.9C19.761 6.222 16.542 4.875 13 4.875c-3.543 0-6.761 1.347-9.31 3.895-1.912 1.912-2.776 3.824-2.807 3.9a.813.813 0 0 0 0 .661c.035.08.895 1.988 2.808 3.9 2.548 2.547 5.766 3.894 9.309 3.894 3.543 0 6.761-1.347 9.31-3.894 1.912-1.912 2.772-3.82 2.807-3.9a.813.813 0 0 0 0-.66ZM13 19.5c-3.126 0-5.857-1.137-8.118-3.377A13.556 13.556 0 0 1 2.54 13a13.542 13.542 0 0 1 2.343-3.123C7.142 7.637 9.874 6.5 13 6.5c3.126 0 5.857 1.136 8.118 3.377.93.922 1.72 1.974 2.348 3.123-.732 1.367-3.922 6.5-10.466 6.5Zm0-11.375a4.875 4.875 0 1 0 0 9.75 4.875 4.875 0 0 0 0-9.75Zm0 8.125a3.25 3.25 0 1 1 0-6.5 3.25 3.25 0 0 1 0 6.5Z" fill="#A6A6A6"/></svg>
