<svg width="140" height="140" fill="none" xmlns="http://www.w3.org/2000/svg"><path d="M121.406 59.092a2.192 2.192 0 0 0-1.769 1.667 2.19 2.19 0 0 0-.024.854 51.26 51.26 0 0 1 .7 8.389 50.17 50.17 0 0 1-14.673 35.476 41.348 41.348 0 0 0-24.341-18.594 24.062 24.062 0 1 0-22.597 0 41.348 41.348 0 0 0-24.342 18.594 50.316 50.316 0 0 1 7.731-77.314A50.313 50.313 0 0 1 70 19.69c2.81 0 5.617.233 8.39.695a2.187 2.187 0 0 0 .721-4.315 54.688 54.688 0 1 0 45.577 53.933 55.733 55.733 0 0 0-.755-9.111 2.18 2.18 0 0 0-.889-1.425 2.191 2.191 0 0 0-1.638-.374Zm-71.094 6.535a19.688 19.688 0 1 1 39.376 0 19.688 19.688 0 0 1-39.376 0Zm-12.649 42.886a37.184 37.184 0 0 1 51.045-13.775 37.186 37.186 0 0 1 13.629 13.775 50.203 50.203 0 0 1-64.674 0Zm90.782-85.089-17.5 17.5a2.203 2.203 0 0 1-1.548.642 2.188 2.188 0 0 1-1.548-.642l-8.75-8.75a2.189 2.189 0 1 1 3.096-3.095l7.18 7.203 15.952-15.953a2.202 2.202 0 0 1 1.548-.64 2.194 2.194 0 0 1 1.548.64 2.191 2.191 0 0 1 0 3.095h.022Z" fill="#000"/></svg>